<ttFont>
<head>
    <!-- Most of this table will be recalculated by the compiler -->
    <tableVersion value="1.0"/>
    <fontRevision value="1.09999"/>
    <checkSumAdjustment value="0x963a93ce"/>
    <magicNumber value="0x5f0f3cf5"/>
    <flags value="00000000 00000011"/>
    <unitsPerEm value="1000"/>
    <created value="Mon Jun  2 15:50:58 2014"/>
    <modified value="Wed Jun  4 13:26:25 2014"/>
    <xMin value="-540"/>
    <yMin value="-401"/>
    <xMax value="2142"/>
    <yMax value="998"/>
    <macStyle value="00000000 00000000"/>
    <lowestRecPPEM value="3"/>
    <fontDirectionHint value="2"/>
    <indexToLocFormat value="0"/>
    <glyphDataFormat value="0"/>
  </head>
          <CharString index="0">
            rmoveto
            -38 -31 -31 -38 -38 31 -31 38 -52 callgsubr
            -53 callsubr
            hvcurveto
            return
          </CharString>
          <CharString index="1">
            hhcurveto
            41 31 7 17 23 hvcurveto
            -6 14 rlineto
            -3 -5 -14 -6 -18 hhcurveto
            -101 70 207 26 -185 hvcurveto
            4 return
          </CharString>
          <CharString index="2">
            91 41 -86 -104 -97 -26 -94 -70 -29 -16 16 20 hvcurveto
            58 85 -45 85 vvcurveto
            33 -2 -24 28 -43 hhcurveto
            -51 -31 -40 -49 -85 63 -48 77 127 85 96 122 82 -44 83 -87 25 hvcurveto
            return
          </CharString>
          <CharString index="3">
            210 rmoveto
            -48 -15 -49 -30 -59 -90 callgsubr
            return
          </CharString>
          <CharString index="4">
            -96 -98 -31 -112 -67 42 -40 58 48 37 31 49 hvcurveto
            98 -112 -31 36 vvcurveto
            43 95 4 29 return
          </CharString>
          <CharString index="5">
            85 38 -46 -101 callgsubr
            return
          </CharString>
          <CharString index="6">
            77 -84 -26 27 vvcurveto
            18 27 10 30 47 38 -37 -82 -111 -70 -57 -129 vhcurveto
            -43 -20 hlineto
            26 -11 17 -8 43 -100 rrcurveto
            22 callsubr
            return
          </CharString>
          <CharString index="7">
            -95 callsubr
            100 return
          </CharString>
          <CharString index="8">
            329 callgsubr
            -42 22 25 19 21 -2 24 8 vhcurveto
            36 11 16 25 29 49 callgsubr
            73 -46 callgsubr
            return
          </CharString>
          <CharString index="9">
            224 callgsubr
            hvcurveto
            -60 callgsubr
            return
          </CharString>
          <CharString index="10">
            -5 -7 -12 -6 -16 hhcurveto
            -49 -27 36 127 135 21 64 42 return
          </CharString>
          <CharString index="11">
            -68 callgsubr
            hlineto
            hintmask 11011010
            -128 hlineto
            -42 -54 22 56 32 return
          </CharString>
          <CharString index="12">
            140 540 return
          </CharString>
          <CharString index="13">
            -87 callsubr
            131 45 100 109 return
          </CharString>
          <CharString index="14">
            1 rrcurveto
            55 30 -62 -78 -74 -22 -75 -69 -1 hvcurveto
            -8 -10 1 3 -6 hvcurveto
            return
          </CharString>
          <CharString index="15">
            11 13 rlineto
            299 callgsubr
            return
          </CharString>
          <CharString index="16">
            -51 26 -36 -96 callgsubr
            return
          </CharString>
          <CharString index="17">
            hvcurveto
            hintmask 11010110
            -132 -96 callsubr
            return
          </CharString>
          <CharString index="18">
            160 callgsubr
            116 callgsubr
            return
          </CharString>
          <CharString index="19">
            55 25 41 45 46 23 -37 -80 -130 -77 -87 -105 -163 16 176 33 -121 return
          </CharString>
          <CharString index="20">
            55 3 -141 -48 hvcurveto
            -84 callgsubr
            return
          </CharString>
          <CharString index="21">
            rmoveto
            -10 -13 -13 -7 -16 -64 -45 121 -103 hhcurveto
            -51 -43 -16 -20 -22 hvcurveto
            9 -18 rlineto
            3 7 9 1 6 87 17 -121 128 hhcurveto
            58 43 23 30 20 hvcurveto
            endchar
          </CharString>
          <CharString index="22">
            -39 19 -48 31 -26 29 rrcurveto
            -83 callsubr
            return
          </CharString>
          <CharString index="23">
            -94 callgsubr
            99 7 return
          </CharString>
          <CharString index="24">
            -82 callsubr
            -35 12 -29 18 -26 vhcurveto
            -1 -6 287 callgsubr
            -73 -47 return
          </CharString>
          <CharString index="25">
            58 21 27 40 46 vvcurveto
            43 -30 32 -42 -50 -28 -34 -49 return
          </CharString>
          <CharString index="26">
            rmoveto
            3 7 9 1 6 87 17 -121 128 hhcurveto
            58 43 23 30 20 hvcurveto
            -14 14 rlineto
            -10 -13 -13 -7 -16 -64 -45 121 -103 hhcurveto
            -51 -43 -16 -20 -22 hvcurveto
            return
          </CharString>
          <CharString index="27">
            -99 -68 -35 -52 -61 vvcurveto
            -55 30 -37 -16 callsubr
            -87 -13 40 vvcurveto
            21 14 18 60 43 vhcurveto
            return
          </CharString>
          <CharString index="28">
            hlineto
            -98 callgsubr
            98 126 hvcurveto
            return
          </CharString>
          <CharString index="29">
            -70 callsubr
            89 29 60 64 1 hvcurveto
            8 8 -1 -3 6 hvcurveto
            return
          </CharString>
          <CharString index="30">
            238 -71 callsubr
            return
          </CharString>
          <CharString index="31">
            89 29 60 64 1 vhcurveto
            8 8 -1 -3 6 hvcurveto
            return
          </CharString>
          <CharString index="32">
            -337 hlineto
            -70 callsubr
            hvcurveto
            return
          </CharString>
          <CharString index="33">
            hhcurveto
            -43 callgsubr
            hvcurveto
            -167 -100 callgsubr
          </CharString>
          <CharString index="34">
            159 -58 67 -90 -68 -48 -40 -66 -1 vhcurveto
            193 callgsubr
            return
          </CharString>
          <CharString index="35">
            -71 -6 -57 -42 -72 283 callgsubr
            return
          </CharString>
          <CharString index="36">
            rmoveto
            -77 callgsubr
            return
          </CharString>
          <CharString index="37">
            -6 -46 -24 -32 -41 -1 rrcurveto
            -55 -31 59 81 return
          </CharString>
          <CharString index="38">
            -73 callsubr
            36 20 -34 -149 hvcurveto
            return
          </CharString>
          <CharString index="39">
            429 callsubr
            31 34 44 hhcurveto
            return
          </CharString>
          <CharString index="40">
            36 97 -27 81 49 callgsubr
            68 -46 callgsubr
            71 185 callsubr
            return
          </CharString>
          <CharString index="41">
            36 13 24 22 36 hhcurveto
            64 29 -68 -83 -114 -24 -108 -124 -79 -67 46 100 56 24 48 57 5 hvcurveto
            return
          </CharString>
          <CharString index="42">
            -88 -32 77 90 callgsubr
            94 6 73 49 84 vvcurveto
            84 -63 48 -87 vhcurveto
            return
          </CharString>
          <CharString index="43">
            hhcurveto
            -70 callgsubr
            return
          </CharString>
          <CharString index="44">
            -123 99 -70 130 return
          </CharString>
          <CharString index="45">
            25 43 -1 44 vvcurveto
            32 -26 25 -39 -45 -23 -33 -37 return
          </CharString>
          <CharString index="46">
            hhcurveto
            -104 callgsubr
            return
          </CharString>
          <CharString index="47">
            52 38 41 64 6 return
          </CharString>
          <CharString index="48">
            -36 55 77 101 34 75 76 hvcurveto
            20 20 -288 -20 138 -4 hlineto
            -79 -22 -46 -65 -86 vvcurveto
            return
          </CharString>
          <CharString index="49">
            152 72 callsubr
            return
          </CharString>
          <CharString index="50">
            vvcurveto
            -50 -11 callsubr
            76 -75 -20 32 vvcurveto
            return
          </CharString>
          <CharString index="51">
            -152 274 58 -137 vvcurveto
            -49 -39 -37 -68 vhcurveto
            return
          </CharString>
          <CharString index="52">
            540 100 vlineto
            endchar
          </CharString>
          <CharString index="53">
            -86 -1 -11 -63 -45 hhcurveto
            return
          </CharString>
          <CharString index="54">
            38 -31 31 -38 return
          </CharString>
          <CharString index="55">
            61 callgsubr
            -4 -4 0 1 -5 vhcurveto
            18 25 11 29 34 vvcurveto
            49 -28 34 -50 -42 -30 -32 -43 -46 27 -40 58 -21 vhcurveto
            -26 -29 -48 -31 -39 -19 10 -18 rcurveline
            40 20 50 29 35 41 rrcurveto
            -4 19 20 -2 21 114 callsubr
            return
          </CharString>
          <CharString index="56">
            320 callsubr
            128 86 67 94 vhcurveto
            return
          </CharString>
          <CharString index="57">
            rmoveto
            -129 209 129 hlineto
            -325 -14 callsubr
            return
          </CharString>
          <CharString index="58">
            36 -36 140 -20 20 hstemhm
            return
          </CharString>
          <CharString index="59">
            145 96 140 return
          </CharString>
          <CharString index="60">
            405 callsubr
            -105 -71 -35 -88 hvcurveto
            -10 -20 hlineto
            -6 83 -12 -239 244 hhcurveto
            return
          </CharString>
          <CharString index="61">
            175 -287 -27 82 vvcurveto
            20 23 25 62 return
          </CharString>
          <CharString index="62">
            -44 callgsubr
            -5 callgsubr
            return
          </CharString>
          <CharString index="63">
            42 21 -64 -135 -127 -27 -36 -49 -16 -12 6 5 -7 return
          </CharString>
          <CharString index="64">
            -104 callsubr
            -103 callgsubr
            return
          </CharString>
          <CharString index="65">
            hlineto
            278 callsubr
            return
          </CharString>
          <CharString index="66">
            -27 hlineto
            -60 -34 43 54 60 18 48 77 hvcurveto
            20 return
          </CharString>
          <CharString index="67">
            -54 callgsubr
            vhcurveto
            return
          </CharString>
          <CharString index="68">
            92 callsubr
            vlineto
            endchar
          </CharString>
          <CharString index="69">
            -20 hlineto
            -12 callsubr
            return
          </CharString>
          <CharString index="70">
            55 -55 -34 callsubr
            return
          </CharString>
          <CharString index="71">
            144 121 130 return
          </CharString>
          <CharString index="72">
            102 28 -53 -74 -94 -42 -48 -81 -37 -45 15 30 hvcurveto
            39 95 -21 79 vvcurveto
            34 -26 31 -45 -48 -32 -38 -51 -89 55 -53 122 131 98 52 114 vhcurveto
            4 74 -217 -95 callsubr
            return
          </CharString>
          <CharString index="73">
            155 -45 callsubr
            return
          </CharString>
          <CharString index="74">
            -312 -41 callgsubr
          </CharString>
          <CharString index="75">
            -61 callgsubr
            99 7 99 126 return
          </CharString>
          <CharString index="76">
            21 -21 540 20 return
          </CharString>
          <CharString index="77">
            605 rmoveto
            183 -107 -24 40 -48 hhcurveto
            -30 -21 -22 -28 -17 9 -13 16 -16 hvcurveto
            34 -34 54 -32 101 -76 rrcurveto
            -55 5 rmoveto
            120 -183 -47 36 -42 hhcurveto
            -32 -23 -20 -30 -22 16 -19 29 -11 hvcurveto
            50 -19 82 -13 141 -42 rrcurveto
            return
          </CharString>
          <CharString index="78">
            -117 0 12.5 130.5 15 hstem
            7 18 196 130 78.5 12.5 vstem
            440 239 rmoveto
            -9 hlineto
            -1 -1 -1 -54 rlineto
            -17 -1 -6 -7 -17 hhcurveto
            -29 -2 rlineto
            -25 424 -80 hlineto
            -264 -425 rlineto
            -14 214 -28 vlineto
            -1 -78 rlineto
            -17 -8 -6 -17 -1 vhcurveto
            -45 -1 -2 -1 rlineto
            -9 vlineto
            2 -2 rlineto
            0 82 2 57 54 68 0 hflex
            1 2 rlineto
            9 vlineto
            -1 1 -34 1 rlineto
            -17 1 -7 6 17 vvcurveto
            -2 78 rlineto
            28 25 vlineto
            29 -2 rlineto
            17 6 -7 -18 1 hvcurveto
            1 -50 1 -1 rlineto
            9 hlineto
            2 1 rlineto
            0 0 -2 65 0 25 0 24 2 58 0 flex1
            -221 231 rmoveto
            -311 -196 vlineto
            endchar
          </CharString>
          <CharString index="79">
            248 callgsubr
            hvcurveto
            -62 callsubr
            return
          </CharString>
          <CharString index="80">
            54 -35 32 -35 12 hvcurveto
            endchar
          </CharString>
          <CharString index="81">
            -71 -6 -57 -42 -72 365 callsubr
            vhcurveto
            return
          </CharString>
          <CharString index="82">
            29 callsubr
            -56 callgsubr
            return
          </CharString>
          <CharString index="83">
            55 -55 10 callsubr
            return
          </CharString>
          <CharString index="84">
            13 -13 66 callgsubr
            return
          </CharString>
          <CharString index="85">
            -79 -61 -60 -76 -89 61 -46 69 32 43 12 20 17 hvcurveto
            165 callsubr
            return
          </CharString>
          <CharString index="86">
            -347 hlineto
            -6 callsubr
            hvcurveto
            return
          </CharString>
          <CharString index="87">
            -18 callgsubr
            -82 -55 -29 -74 return
          </CharString>
          <CharString index="88">
            208 21 32 callsubr
            173 163 callsubr
            hintmask 1011101011000000
            555 418 rmoveto
            15 -23 -30 8 -41 hhcurveto
            -89 callgsubr
            hvcurveto
            hintmask 0111010011000000
            -88 callsubr
            vhcurveto
            4 vlineto
            hintmask 0111101111000000
            0 callsubr
            return
          </CharString>
          <CharString index="89">
            -77 -12 14 310 10 254 11 hstemhm
            28 49 -27 59 169 138 -112 147 hintmask 11110100
            215 587 rmoveto
            hintmask 11101100
            -110 -55 -53 -66 -42 28 -28 40 36 26 23 37 22 -11 16 -15 10 hvcurveto
            -21 13 -24 -2 21 vvcurveto
            18 36 20 43 70 20 -55 -68 -69 -1 -62 -114 vhcurveto
            -16 -10 16 hlineto
            hintmask 11110010
            115 26 -66 -93 -92 -34 -59 -77 -70 -46 41 22 19 32 -1 21 10 hvcurveto
            25 11 14 16 31 vvcurveto
            35 -22 30 -44 -40 -35 -32 -54 -93 87 -49 104 140 92 54 111 97 -71 54 -130 14 vhcurveto
            hintmask 11110100
            116 14 50 51 67 vvcurveto
            85 -79 52 -122 vhcurveto
            endchar
          </CharString>
          <CharString index="90">
            -30 -92 -14 -35 hhcurveto
            -27 -53 4 44 27 20 15 25 24 16 -11 -8 9 hvcurveto
            13 15 rlineto
            8 -7 -24 16 -30 hhcurveto
            -56 -26 -46 -52 -80 63 -28 80 hvcurveto
            return
          </CharString>
          <CharString index="91">
            -48 callgsubr
            78 return
          </CharString>
          <CharString index="92">
            -49 callsubr
            35 150 return
          </CharString>
          <CharString index="93">
            -380 1 callgsubr
            return
          </CharString>
          <CharString index="94">
            -6 -12 rlineto
            -20 27 40 -14 43 hhcurveto
            66 36 39 55 67 -67 34 -117 hvcurveto
            -1 hlineto
            return
          </CharString>
          <CharString index="95">
            61 callgsubr
            -44 -37 22 25 vhcurveto
            -67 callsubr
            return
          </CharString>
          <CharString index="96">
            30 -35 -48 callgsubr
            return
          </CharString>
          <CharString index="97">
            -87 -86 -49 -41 -89 hvcurveto
            return
          </CharString>
          <CharString index="98">
            10 10 -3 -6 10 hvcurveto
            return
          </CharString>
          <CharString index="99">
            240 20 rmoveto
            return
          </CharString>
          <CharString index="100">
            203 callgsubr
            98 vlineto
            endchar
          </CharString>
          <CharString index="101">
            -27 -4 -28 -42 39 callgsubr
            return
          </CharString>
          <CharString index="102">
            145 157 140 return
          </CharString>
          <CharString index="103">
            -40 -12 17 318 20 229 16 hstemhm
            38 136 184 130 -68 48 hintmask 11110100
            420 505 rmoveto
            -20 -23 1 -22 -10 vhcurveto
            -21 -9 -19 -16 -30 vvcurveto
            -36 23 -25 41 45 24 41 37 88 -65 62 -105 -165 -95 -122 -182 -176 71 -120 161 vhcurveto
            hintmask 11111000
            122 96 64 123 120 -90 48 -92 -77 -33 -39 -44 -21 hvcurveto
            -1 1 rlineto
            231 45 80 91 vhcurveto
            hintmask 11110100
            61 49 -32 -35 hvcurveto
            -239 -341 rmoveto
            hintmask 11111000
            101 40 58 58 56 23 -63 -96 -104 -23 -55 -64 vhcurveto
            hintmask 11110100
            -65 -25 63 96 hvcurveto
            endchar
          </CharString>
          <CharString index="104">
            -164 429 21 -6 147 hstemhm
            39 13 93 149 127 14 hintmask 01111000
            39 362 rmoveto
            12 9 hlineto
            60 26 13 47 vhcurveto
            hintmask 10111000
            68 47 -15 62 hhcurveto
            40 26 11 9 13 hvcurveto
            -23 -43 -16 -21 -41 -47 rrcurveto
            -72 -83 -83 -79 -92 vvcurveto
            -61 30 -35 48 50 25 42 61 77 -20 79 48 83 vhcurveto
            35 59 24 34 16 36 20 44 10 35 4 38 -14 3 rcurveline
            -57 -7 -25 -72 -47 -76 1 141 -96 hhcurveto
            hintmask 01111000
            -82 -25 -81 -75 -12 hvcurveto
            -1 hlineto
            0 1 22 32 vvcurveto
            51 -4 40 -14 -6 -3 -4 -8 vhcurveto
            -23 14 -44 -52 vvcurveto
            endchar
          </CharString>
          <CharString index="105">
            -42 -12 14 310 14 246 15 hstemhm
            33 129 -101 122 149 122 -96 130 hintmask 11101010
            61 448 rmoveto
            -86 69 -33 64 -12 vhcurveto
            hintmask 11110010
            -77 -13 -84 -43 -104 vvcurveto
            -105 87 -64 140 126 102 63 106 104 -77 43 -80 14 vhcurveto
            hintmask 11110100
            63 11 60 33 86 vvcurveto
            96 -90 43 -104 vhcurveto
            hintmask 11101010
            -94 -105 -43 -96 hvcurveto
            hintmask 11110010
            101 -291 rmoveto
            94 28 61 70 70 28 -59 -96 -89 -32 -66 -66 -66 -32 64 91 vhcurveto
            hintmask 11101100
            21 290 rmoveto
            76 24 49 53 53 19 -46 -77 -74 -15 -49 -57 -57 -20 46 75 vhcurveto
            endchar
          </CharString>
          <CharString index="106">
            -35 -24 431 callgsubr
            -10 -13 -5 -14 hhcurveto
            -55 -31 59 81 89 29 60 64 1 hvcurveto
            8 8 -1 -3 6 hvcurveto
            return
          </CharString>
          <CharString index="107">
            -66 callgsubr
            324 hlineto
            236 20 rmoveto
            -811 142 callsubr
            return
          </CharString>
          <CharString index="108">
            rmoveto
            -597 20 callsubr
            hintmask 1111011101100000
            162 callgsubr
            hintmask 1111101101100000
            17 callsubr
            hintmask 1111101011100000
            -57 callgsubr
          </CharString>
          <CharString index="109">
            20 vlineto
            -52 9 -21 38 50 vvcurveto
            66 41 42 77 vhcurveto
            return
          </CharString>
          <CharString index="110">
            -41 callsubr
            -316 -20 152 vlineto
            -42 callgsubr
            return
          </CharString>
          <CharString index="111">
            109 rmoveto
            -22 -22 -31 -13 -33 hhcurveto
            -67 -28 59 82 -6 hvcurveto
            61 12 58 35 67 vvcurveto
            70 return
          </CharString>
          <CharString index="112">
            328 -19 callgsubr
            return
          </CharString>
          <CharString index="113">
            133 -122 93 93 140 -52 106 return
          </CharString>
          <CharString index="114">
            19 15 18 10 21 hhcurveto
            55 48 -84 -110 54 hvcurveto
            -159 -122 12 -17 return
          </CharString>
          <CharString index="115">
            15 callsubr
            153 vlineto
            -8 callsubr
            -775 150 callgsubr
            return
          </CharString>
          <CharString index="116">
            -20 71 -15 callgsubr
            return
          </CharString>
          <CharString index="117">
            155 -44 callgsubr
            return
          </CharString>
          <CharString index="118">
            373 286 callgsubr
            48 48 callsubr
            hintmask 11010100
            386 466 94 callgsubr
            hintmask 11010010
            -66 callsubr
            hintmask 10101100
            12 callgsubr
            hintmask 10110010
            194 callsubr
            return
          </CharString>
          <CharString index="119">
            684 560 rmoveto
            -704 -20 125 113 callgsubr
            return
          </CharString>
          <CharString index="120">
            -149 273 40 -117 vvcurveto
            331 callgsubr
            vhcurveto
            return
          </CharString>
          <CharString index="121">
            205 callgsubr
            12 11 1 2 12 vhcurveto
            -188 -129 11 -18 return
          </CharString>
          <CharString index="122">
            -56 110 -219 -12 71 vvcurveto
            21 24 21 71 49 58 -10 -6 23 vhcurveto
            126 return
          </CharString>
          <CharString index="123">
            hlineto
            19 callsubr
            return
          </CharString>
          <CharString index="124">
            8 -14 rlineto
            11 14 27 12 24 hhcurveto
            47 26 -27 -50 -66 -35 -37 -70 hvcurveto
            -15 -20 15 hlineto
            return
          </CharString>
          <CharString index="125">
            144 -73 hlineto
            -90 -4 -47 -54 -10 -11 2 4 -9 vhcurveto
            -9 -14 rlineto
            -11 16 38 -16 54 hhcurveto
            121 13 67 119 hvcurveto
            59 76 vlineto
            endchar
          </CharString>
          <CharString index="126">
            -55 callgsubr
            339 callgsubr
            return
          </CharString>
          <CharString index="127">
            -20 57 -303 -76 hlineto
            -10 72 -58 39 -82 5 rrcurveto
            4 vlineto
            62 13 56 32 69 vvcurveto
            return
          </CharString>
          <CharString index="128">
            -84 callsubr
            99 126 5 246 callsubr
            return
          </CharString>
          <CharString index="129">
            -95 callgsubr
            121 353 callgsubr
            return
          </CharString>
          <CharString index="130">
            51 callsubr
            vhcurveto
            261 callgsubr
            return
          </CharString>
          <CharString index="131">
            363 78 callsubr
            -20 302 callsubr
            102 -32 callgsubr
            hintmask 1000110111010000
            707 239 rmoveto
            hintmask 1000101011010000
            -143 135 rlineto
            -74 callgsubr
            hintmask 1000110111110000
            44 callgsubr
            -111 209 412 hlineto
            return
          </CharString>
          <CharString index="132">
            rmoveto
            -38 -33 38 46 -8 hvcurveto
            8 15 8 16 7 18 rrcurveto
            99 40 2 135 47 hhcurveto
            36 4 -54 -129 -89 -4 -95 -69 hvcurveto
            return
          </CharString>
          <CharString index="133">
            1 callgsubr
            -60 callsubr
            hvcurveto
            -54 callsubr
            return
          </CharString>
          <CharString index="134">
            -36 callsubr
            -3 137 return
          </CharString>
          <CharString index="135">
            -251 0 12.5 hstem
            102 130 vstem
            23 hmoveto
            0 90 2 58 53 76 0 hflex
            2 2 rlineto
            9 vlineto
            -2 1 -42 1 rlineto
            -17 1 -7 6 17 vvcurveto
            -2 78 rlineto
            467 -15 vlineto
            0 -33 -15 -43 -22 vhcurveto
            -48 -23 -78 -37 0 vvcurveto
            5 -14 82 37 rlineto
            -393 vlineto
            -1 -78 rlineto
            -17 -8 -6 -17 -1 vhcurveto
            -53 -1 -2 -1 rlineto
            -9 vlineto
            endchar
          </CharString>
          <CharString index="136">
            -39 19 -48 31 -26 29 return
          </CharString>
          <CharString index="137">
            -20 -47 callsubr
            return
          </CharString>
          <CharString index="138">
            102 -53 71 -78 24 vhcurveto
            103 vlineto
            endchar
          </CharString>
          <CharString index="139">
            -21 25 45 100 86 callgsubr
            return
          </CharString>
          <CharString index="140">
            20 hstemhm
            46 callgsubr
            return
          </CharString>
          <CharString index="141">
            26 -24 19 107 139 return
          </CharString>
          <CharString index="142">
            -82 -15 -40 31 callgsubr
            return
          </CharString>
          <CharString index="143">
            19 callgsubr
            566 489 rmoveto
            20 -811 -20 481 -98 vlineto
            -40 -13 -38 -25 -31 -44 rrcurveto
            53 callsubr
            return
          </CharString>
          <CharString index="144">
            42 callgsubr
            hvcurveto
            return
          </CharString>
          <CharString index="145">
            48 228 132 callsubr
            return
          </CharString>
          <CharString index="146">
            11 -12 14 570 15 hstem
            35 147 208 149 vstem
            289 -12 rmoveto
            152 98 148 151 152 -97 148 -153 -162 -92 -151 -149 -139 92 -160 162 hvcurveto
            14 vmoveto
            -97 -10 133 152 148 14 137 93 91 10 -137 -148 -152 -10 -133 -91 hvcurveto
            endchar
          </CharString>
          <CharString index="147">
            -79 157 100 -42 100 hstemhm
            30 22 380 22 hintmask 01110000
            53 148 rmoveto
            0 -1 8 10 vvcurveto
            28 18 21 27 vhcurveto
            hintmask 10110000
            79 54 -58 91 hhcurveto
            72 61 55 67 14 -1 15 -6 16 hvcurveto
            -16 hlineto
            0 1 -9 -9 vvcurveto
            -27 -16 -22 -30 vhcurveto
            hintmask 01110000
            -80 -54 58 -90 hhcurveto
            -71 -61 -53 -69 -15 2 -14 5 -16 hvcurveto
            endchar
          </CharString>
          <CharString index="148">
            223 callgsubr
            540 100 vlineto
            endchar
          </CharString>
          <CharString index="149">
            -67 callgsubr
            53 35 -50 -75 6 hvcurveto
            -20 vlineto
            return
          </CharString>
          <CharString index="150">
            55 -49 40 290 -24 callsubr
            return
          </CharString>
          <CharString index="151">
            -20 20 hstemhm
            -20 140 -54 158 callgsubr
            return
          </CharString>
          <CharString index="152">
            -26 -7 -29 -28 101 callgsubr
            return
          </CharString>
          <CharString index="153">
            -118 -87 -75 -115 return
          </CharString>
          <CharString index="154">
            -62 callgsubr
            53 32 -52 -61 9 hvcurveto
            return
          </CharString>
          <CharString index="155">
            145 -137 145 185 140 -39 140 return
          </CharString>
          <CharString index="156">
            -142 95 -66 140 78 55 34 50 30 vhcurveto
            -15 9 rlineto
            -35 -22 -40 -25 -48 hhcurveto
            -59 -69 38 138 235 callsubr
            hvcurveto
            endchar
          </CharString>
          <CharString index="157">
            327 callsubr
            vhcurveto
            118 callgsubr
          </CharString>
          <CharString index="158">
            -104 23 -109 139 return
          </CharString>
          <CharString index="159">
            -7 -10 1 0 hvcurveto
            return
          </CharString>
          <CharString index="160">
            60 -19 -50 35 -70 hhcurveto
            -110 -68 -92 -115 -108 55 -108 130 83 58 31 63 43 hvcurveto
            return
          </CharString>
          <CharString index="161">
            -47 -17 -23 -43 -42 vvcurveto
            -64 43 -36 66 -9 vhcurveto
            -4 vlineto
            return
          </CharString>
          <CharString index="162">
            92 35 84 105 21 23 -4 -5 16 return
          </CharString>
          <CharString index="163">
            vstem
            359 560 rmoveto
            -379 -20 379 hlineto
            40 -351 rmoveto
            -83 -57 202 callsubr
            367 callsubr
            300 206 rlineto
            return
          </CharString>
          <CharString index="164">
            hhcurveto
            -37 -27 16 7 -10 hvcurveto
            -11 -16 rlineto
            -18 22 49 -16 60 hhcurveto
            return
          </CharString>
          <CharString index="165">
            hintmask 1010101111000000
            -347 vlineto
            -72 callgsubr
            hintmask 0111011111000000
            9 callgsubr
            hintmask 1011011111000000
            -71 callgsubr
          </CharString>
          <CharString index="166">
            105 -16 -73 37 -67 101 callsubr
            152 639 vlineto
            -924 hmoveto
            -26 callgsubr
            1164 222 rmoveto
            -1383 -20 73 289 callgsubr
            return
          </CharString>
          <CharString index="167">
            395 callgsubr
            33 34 callsubr
            return
          </CharString>
          <CharString index="168">
            -142 96 -66 140 78 54 34 50 30 return
          </CharString>
          <CharString index="169">
            145 60 140 return
          </CharString>
          <CharString index="170">
            -1 2 20 rcurveline
            89 callsubr
            return
          </CharString>
          <CharString index="171">
            79 callsubr
            vhcurveto
            return
          </CharString>
          <CharString index="172">
            281 -24 callsubr
            return
          </CharString>
          <CharString index="173">
            363 560 rmoveto
            -383 -20 383 hlineto
            -7 -262 rmoveto
            -27 -25 rlineto
            107 -48 -54 77 -85 hhcurveto
            4 callgsubr
            69 48 -58 -119 54 vhcurveto
            -249 -224 13 -16 290 260 rlineto
            return
          </CharString>
          <CharString index="174">
            -59 -32 17 41 41 42 15 60 52 57 -14 -8 24 hvcurveto
            endchar
          </CharString>
          <CharString index="175">
            rmoveto
            -63 -11 50 81 82 11 50 63 63 11 -50 -82 -81 -11 -50 -63 hvcurveto
            return
          </CharString>
          <CharString index="176">
            rmoveto
            -53 callsubr
            -38 -31 -31 -38 -38 31 -31 38 -52 callgsubr
            vhcurveto
            return
          </CharString>
          <CharString index="177">
            -163 16 176 33 -121 hvcurveto
            return
          </CharString>
          <CharString index="178">
            3 hlineto
            77 callsubr
            return
          </CharString>
          <CharString index="179">
            74 389 callsubr
            return
          </CharString>
          <CharString index="180">
            31 callgsubr
            18 17 1 3 17 vhcurveto
            hintmask 10110011
            -74 -52 26 callgsubr
            6 4 11 7 9 7 17 12 14 14 9 17 rrcurveto
            -118 -100 callsubr
            return
          </CharString>
          <CharString index="181">
            120 -51 55 -44 40 12 52 221 55 -55 155 -150 55 -55 150 -44 callgsubr
            -20 20 hstemhm
            33 145 return
          </CharString>
          <CharString index="182">
            -15 -31 -48 -10 -54 hhcurveto
            -30 -31 4 6 -30 hvcurveto
            43 38 37 45 67 349 callsubr
            -43 21 -37 34 -30 vhcurveto
            return
          </CharString>
          <CharString index="183">
            560 15 callgsubr
            return
          </CharString>
          <CharString index="184">
            -160 -110 11 -18 return
          </CharString>
          <CharString index="185">
            224 callsubr
            -19 -9 callgsubr
            89 36 -36 140 return
          </CharString>
          <CharString index="186">
            -108 58 -87 113 68 43 31 44 20 return
          </CharString>
          <CharString index="187">
            -120 41 -66 132 -14 vhcurveto
            -4 vlineto
            return
          </CharString>
          <CharString index="188">
            21 -21 47 24 146 20 103 20 180 20 -20 32 return
          </CharString>
          <CharString index="189">
            378 callgsubr
            145 vlineto
            238 20 rmoveto
            -600 -20 71 -195 hlineto
            23 callsubr
            227 callgsubr
          </CharString>
          <CharString index="190">
            -79 4 -51 39 73 vvcurveto
            46 24 30 42 44 22 -30 -45 -6 -1 -6 0 vhcurveto
            21 hlineto
            0 2 9 10 vvcurveto
            73 -53 55 -82 return
          </CharString>
          <CharString index="191">
            365 callsubr
            34 callgsubr
            vhcurveto
            return
          </CharString>
          <CharString index="192">
            hlineto
            -72 callsubr
            return
          </CharString>
          <CharString index="193">
            58 63 -17 -13 27 hvcurveto
            return
          </CharString>
          <CharString index="194">
            285 callsubr
            -79 -61 -60 -76 114 callgsubr
            return
          </CharString>
          <CharString index="195">
            hhcurveto
            56 55 37 32 18 hvcurveto
            return
          </CharString>
          <CharString index="196">
            -33 4 -22 17 37 vvcurveto
            35 25 23 38 41 29 -25 -53 -75 -47 -44 -117 vhcurveto
            return
          </CharString>
          <CharString index="197">
            221 hlineto
            85 38 -46 -87 -41 -11 -30 -21 -21 hvcurveto
            return
          </CharString>
          <CharString index="198">
            rmoveto
            108 -162 -46 31 -37 hhcurveto
            -24 -20 -14 -25 return
          </CharString>
          <CharString index="199">
            -95 callsubr
            98 return
          </CharString>
          <CharString index="200">
            rmoveto
            132 callgsubr
            23 -18 18 -23 -23 -18 -18 -23 vhcurveto
            endchar
          </CharString>
          <CharString index="201">
            242 162 callsubr
            return
          </CharString>
          <CharString index="202">
            rmoveto
            -27 12 -33 19 -19 20 -33 33 -5 35 13 8 8 5 6 -8 13 -7 rrcurveto
            -5 9 13 -5 19 hhcurveto
            42 33 33 45 45 -37 35 -50 -61 -39 -52 -60 -41 16 -40 25 -26 hvcurveto
            26 -29 34 -20 36 -16 rrcurveto
            return
          </CharString>
          <CharString index="203">
            hhcurveto
            -25 -26 2 4 -26 hvcurveto
            37 35 29 41 60 349 callsubr
            -45 23 -35 36 -27 vhcurveto
            return
          </CharString>
          <CharString index="204">
            -63 callgsubr
            151 110 callgsubr
            return
          </CharString>
          <CharString index="205">
            -3 -3 rlineto
            76 -76 -53 65 -42 hhcurveto
            -28 -23 -21 -28 -18 9 -20 20 -12 hvcurveto
            return
          </CharString>
          <CharString index="206">
            vvcurveto
            -46 25 -44 58 43 33 27 43 vhcurveto
            76 -82 -13 39 vvcurveto
            return
          </CharString>
          <CharString index="207">
            hhcurveto
            157 callgsubr
            return
          </CharString>
          <CharString index="208">
            hhcurveto
            -66 -49 -30 -42 -24 hvcurveto
            return
          </CharString>
          <CharString index="209">
            -71 57 -34 64 return
          </CharString>
          <CharString index="210">
            -145 67 -60 147 148 66 60 145 vhcurveto
            198 122 -540 -39 callsubr
          </CharString>
          <CharString index="211">
            138 callgsubr
            -301 hlineto
            hintmask 10010110
            -143 135 rlineto
            -74 callgsubr
            hintmask 01101110
            -82 callgsubr
            return
          </CharString>
          <CharString index="212">
            205 callgsubr
            14 14 1 3 14 vhcurveto
            -35 -24 rlineto
            return
          </CharString>
          <CharString index="213">
            96 -59 71 -92 12 vhcurveto
            107 callgsubr
          </CharString>
          <CharString index="214">
            33 callgsubr
            -112 -82 -78 -128 hvcurveto
            -6 0 -5 -6 vvcurveto
            -21 -17 -24 -18 -25 hhcurveto
            -74 0 86 68 hvcurveto
            202 532 vlineto
            322 hmoveto
            20 return
          </CharString>
          <CharString index="215">
            94 94 47 87 40 -30 32 -43 -44 -29 -32 -36 hvcurveto
            -54 49 1 -29 vvcurveto
            return
          </CharString>
          <CharString index="216">
            -20 94 -218 hlineto
            -49 0 -42 8 -40 vhcurveto
            -103 21 87 -48 129 hhcurveto
            return
          </CharString>
          <CharString index="217">
            101 -51 -45 81 -93 265 callgsubr
            return
          </CharString>
          <CharString index="218">
            147 15 131 2 149 return
          </CharString>
          <CharString index="219">
            1 -9 -12 1 -12 hhcurveto
            return
          </CharString>
          <CharString index="220">
            378 callgsubr
            145 vlineto
            366 callsubr
            -858 241 callsubr
            return
          </CharString>
          <CharString index="221">
            hhcurveto
            -58 callsubr
            71 -92 12 hvcurveto
            6 return
          </CharString>
          <CharString index="222">
            hlineto
            -1 -6 0 -7 -10 vvcurveto
            return
          </CharString>
          <CharString index="223">
            66 141 145 return
          </CharString>
          <CharString index="224">
            86 -38 54 -63 27 vhcurveto
            91 vlineto
            endchar
          </CharString>
          <CharString index="225">
            205 43 117 14 callgsubr
            -34 130 hintmask 11101110
            426 callsubr
            153 20 -562 -20 269 236 callsubr
            return
          </CharString>
          <CharString index="226">
            76 -19 -56 23 -47 hhcurveto
            -36 -41 -4 -48 -65 hvcurveto
            4 12 2 14 14 vvcurveto
            65 -36 52 -71 16 vhcurveto
            return
          </CharString>
          <CharString index="227">
            -3 7 -4 12 14 vvcurveto
            48 33 25 46 65 33 -49 -122 1 vhcurveto
            return
          </CharString>
          <CharString index="228">
            248 -87 156 callsubr
            return
          </CharString>
          <CharString index="229">
            55 -55 131 callsubr
            return
          </CharString>
          <CharString index="230">
            140 -128 135 return
          </CharString>
          <CharString index="231">
            194 callsubr
            -120 118 -43 145 -5 vhcurveto
            -155 -109 -36 callgsubr
            -162 113 rlineto
            179 3 101 87 154 vvcurveto
            return
          </CharString>
          <CharString index="232">
            140 209 callsubr
          </CharString>
          <CharString index="233">
            27 36 24 13 39 hhcurveto
            47 27 -22 -49 14 hvcurveto
            -61 -32 -41 -48 -66 99 callsubr
            39 73 32 82 14 vhcurveto
            -302 139 vlineto
            return
          </CharString>
          <CharString index="234">
            -9 36 38 -5 37 hhcurveto
            34 32 3 7 27 hvcurveto
            -13 -18 -7 -22 -26 283 callgsubr
            return
          </CharString>
          <CharString index="235">
            1 1 rlineto
            122 callgsubr
            return
          </CharString>
          <CharString index="236">
            vvcurveto
            21 24 24 64 46 48 -10 -19 43 vhcurveto
            136 return
          </CharString>
          <CharString index="237">
            -54 callsubr
            565 400 rmoveto
            return
          </CharString>
          <CharString index="238">
            155 -20 210 callsubr
            return
          </CharString>
          <CharString index="239">
            20 205 20 hstemhm
            return
          </CharString>
          <CharString index="240">
            vstem
            52 76 rmoveto
            0 153 123 11 10 vhcurveto
            10 9 1 14 -11 11 rrcurveto
            -11 11 -153 122 0 vvcurveto
            -12 -12 rlineto
            0 77 -98 30 -40 vhcurveto
            -27 -40 -80 -98 0 vvcurveto
            return
          </CharString>
          <CharString index="241">
            hlineto
            -78 -4 -49 -38 165 callgsubr
            return
          </CharString>
          <CharString index="242">
            16 callsubr
            540 100 vlineto
            endchar
          </CharString>
          <CharString index="243">
            138 339 callsubr
            return
          </CharString>
          <CharString index="244">
            15 181 callgsubr
            return
          </CharString>
          <CharString index="245">
            -114 -3 -64 -47 -68 return
          </CharString>
          <CharString index="246">
            -94 24 33 352 14 callgsubr
            hintmask 11011100
            426 callsubr
            354 callgsubr
            236 callsubr
            return
          </CharString>
          <CharString index="247">
            82 -59 57 -88 -77 -43 -48 -61 -67 42 -48 60 -32 vhcurveto
            -15 -16 -21 -9 -25 57 callsubr
            35 31 7 14 27 hvcurveto
            return
          </CharString>
          <CharString index="248">
            rmoveto
            0 -80 98 -27 40 vhcurveto
            30 40 77 98 0 vvcurveto
            -12 12 rlineto
            0 -153 -122 -11 -11 vhcurveto
            -11 -11 1 -14 10 -9 rrcurveto
            11 -10 153 -123 0 vvcurveto
            endchar
          </CharString>
          <CharString index="249">
            -20 94 24 callgsubr
            return
          </CharString>
          <CharString index="250">
            51 callsubr
            vhcurveto
            71 callsubr
            317 218 -11 18 -63 -43 374 callgsubr
            vlineto
            endchar
          </CharString>
          <CharString index="251">
            117 callgsubr
            hvcurveto
            hintmask 10010110
            -76 callgsubr
            vhcurveto
            hintmask 01101110
            -82 callgsubr
            return
          </CharString>
          <CharString index="252">
            rmoveto
            34 13 -32 -72 -72 -12 -45 -34 -38 -12 44 73 73 17 31 32 hvcurveto
            139 -105 rmoveto
            75 -52 50 -87 -89 -51 -56 -73 -76 41 -55 96 98 44 59 76 vhcurveto
            return
          </CharString>
          <CharString index="253">
            169 callsubr
            24 return
          </CharString>
          <CharString index="254">
            104 -141 hlineto
            -275 -189 11 -18 264 181 rlineto
            -145 -95 callsubr
            return
          </CharString>
          <CharString index="255">
            -4 -13 -32 -3 -18 hhcurveto
            -80 -68 43 97 76 26 64 91 hvcurveto
            return
          </CharString>
          <CharString index="256">
            400 161 callsubr
            return
          </CharString>
          <CharString index="257">
            152 callgsubr
            -20 20 hstemhm
            return
          </CharString>
          <CharString index="258">
            -60 vvcurveto
            -55 30 -37 -16 callsubr
            return
          </CharString>
          <CharString index="259">
            -118 vlineto
            46 callsubr
            return
          </CharString>
          <CharString index="260">
            -65 -57 -41 -39 -71 -3 hvcurveto
            -2 hlineto
            return
          </CharString>
          <CharString index="261">
            131 224 callgsubr
            return
          </CharString>
          <CharString index="262">
            52 296 36 -36 140 return
          </CharString>
          <CharString index="263">
            hlineto
            87 callgsubr
            return
          </CharString>
          <CharString index="264">
            58 -21 51 -57 26 return
          </CharString>
          <CharString index="265">
            180 callsubr
            hintmask 11011010
            373 64 rmoveto
            20 -597 -20 70 -42 vlineto
            392 callsubr
            -74 -19 -61 -46 -77 vvcurveto
            return
          </CharString>
          <CharString index="266">
            142 callsubr
            26 25 2 4 23 hvcurveto
            -206 -123 11 -18 291 174 return
          </CharString>
          <CharString index="267">
            379 -378 hlineto
            -43 -30 202 callsubr
            return
          </CharString>
          <CharString index="268">
            rmoveto
            -680 423 callsubr
            return
          </CharString>
          <CharString index="269">
            -87 hlineto
            138 callsubr
            return
          </CharString>
          <CharString index="270">
            181 callsubr
            107 136 return
          </CharString>
          <CharString index="271">
            305 callgsubr
            -65 -115 return
          </CharString>
          <CharString index="272">
            -5 11 rlineto
            -2 -7 -6 -1 -7 hhcurveto
            -45 -25 46 52 -88 callsubr
            hvcurveto
            4 vlineto
            return
          </CharString>
          <CharString index="273">
            rmoveto
            -39 -38 -29 -42 -46 36 -31 40 21 16 5 10 9 hvcurveto
            -8 -32 -35 -24 -42 -10 4 -19 rcurveline
            63 13 54 48 65 vvcurveto
            61 -42 31 -39 vhcurveto
            endchar
          </CharString>
          <CharString index="274">
            -93 -22 -90 -87 -68 -36 57 48 vhcurveto
            54 97 -33 81 vvcurveto
            19 -7 18 -11 12 vhcurveto
            return
          </CharString>
          <CharString index="275">
            243 callsubr
            89 29 60 64 1 hvcurveto
            return
          </CharString>
          <CharString index="276">
            -81 -38 -57 -42 -65 -57 callsubr
            return
          </CharString>
          <CharString index="277">
            55 -49 40 147 20 123 191 callgsubr
            286 callsubr
            85 145 157 283 callsubr
            return
          </CharString>
          <CharString index="278">
            77 -84 -26 27 vvcurveto
            18 27 10 30 47 38 -37 -82 -111 -70 -57 -129 vhcurveto
            663 307 rmoveto
            -1318 -20 405 callsubr
            hvcurveto
            return
          </CharString>
          <CharString index="279">
            4 5 0 6 hhcurveto
            -127 -86 11 -18 162 110 return
          </CharString>
          <CharString index="280">
            188 44 callsubr
            return
          </CharString>
          <CharString index="281">
            -210 85 callsubr
            return
          </CharString>
          <CharString index="282">
            367 callgsubr
            140 return
          </CharString>
          <CharString index="283">
            -28 callgsubr
            -2 return
          </CharString>
          <CharString index="284">
            196 634 -196 hlineto
            236 -185 rmoveto
            196 185 -196 hlineto
            return
          </CharString>
          <CharString index="285">
            -21 39 193 callsubr
            return
          </CharString>
          <CharString index="286">
            45 100 40 60 304 callsubr
            return
          </CharString>
          <CharString index="287">
            hlineto
            -86 -1 61 106 -1 hvcurveto
            return
          </CharString>
          <CharString index="288">
            133 15 127 return
          </CharString>
          <CharString index="289">
            461 rmoveto
            25 callgsubr
            return
          </CharString>
          <CharString index="290">
            11 13 rlineto
            21 -22 -33 11 -34 hhcurveto
            -85 -80 -51 -123 -9 hvcurveto
            -186 hlineto
            -85 callgsubr
            502 hlineto
            return
          </CharString>
          <CharString index="291">
            331 rmoveto
            -145 137 rlineto
            72 145 vlineto
            -145 -99 rmoveto
            145 -137 rlineto
            -66 vlineto
            -28 -7 -29 -26 101 callgsubr
            return
          </CharString>
          <CharString index="292">
            -92 12 vhcurveto
            6 return
          </CharString>
          <CharString index="293">
            2 -14 2 -13 4 -12 rrcurveto
            -28 -8 -34 -47 -43 hhcurveto
            -74 0 86 68 hvcurveto
            202 vmoveto
            149 -198 hlineto
            -14 vlineto
            -149 140 rlineto
            return
          </CharString>
          <CharString index="294">
            -21 262 callgsubr
            -23 20 hstemhm
            38 424 callsubr
            return
          </CharString>
          <CharString index="295">
            419 540 rmoveto
            107 20 -546 -20 299 -99 hlineto
            0 -44 4 -42 return
          </CharString>
          <CharString index="296">
            20 242 callsubr
            38 145 return
          </CharString>
          <CharString index="297">
            -28 -12 -20 -20 -14 -23 rrcurveto
            112 callgsubr
            return
          </CharString>
          <CharString index="298">
            358 callgsubr
            -10 1 -9 2 -8 vhcurveto
            return
          </CharString>
          <CharString index="299">
            hhcurveto
            -67 -54 37 75 63 32 53 71 hvcurveto
            26 20 hlineto
            return
          </CharString>
          <CharString index="300">
            23 368 284 callsubr
            return
          </CharString>
          <CharString index="301">
            -73 -12 -33 -46 -61 vvcurveto
            return
          </CharString>
          <CharString index="302">
            vvcurveto
            41 -29 31 -40 return
          </CharString>
          <CharString index="303">
            364 388 callgsubr
            -52 379 callsubr
            286 callsubr
            85 -32 callgsubr
            return
          </CharString>
          <CharString index="304">
            -66 callgsubr
            478 -210 hlineto
            -41 -3 -37 -16 -23 -27 rrcurveto
            3 vlineto
            285 callsubr
            vhcurveto
            return
          </CharString>
          <CharString index="305">
            15 -11 rlineto
            19 13 20 10 21 hhcurveto
            60 45 -105 -89 51 hvcurveto
            -158 -122 13 -16 271 208 329 callsubr
            284 return
          </CharString>
          <CharString index="306">
            226 callgsubr
            95 vlineto
            endchar
          </CharString>
          <CharString index="307">
            104 -33 callsubr
          </CharString>
          <CharString index="308">
            -20 176 hlineto
            hintmask 1110111111000000
            -210 vlineto
            -72 callsubr
            hintmask 1101111111000000
            -63 callgsubr
            return
          </CharString>
          <CharString index="309">
            rlineto
            -7 -11 -13 -3 -15 54 callgsubr
            return
          </CharString>
          <CharString index="310">
            vlineto
            -81 -1 -80 -64 -24 -20 10 19 vhcurveto
            47 73 -39 73 vvcurveto
            28 -2 -20 24 -37 hhcurveto
            -44 -26 -34 -42 -73 49 -40 83 113 return
          </CharString>
          <CharString index="311">
            vvcurveto
            -77 52 -56 104 68 53 21 46 24 vhcurveto
            -79 140 288 vlineto
            return
          </CharString>
          <CharString index="312">
            -43 34 -34 43 43 34 34 43 43 -34 34 -43 -43 -34 -34 -43 vhcurveto
            return
          </CharString>
          <CharString index="313">
            231 callsubr
            -7 vlineto
            return
          </CharString>
          <CharString index="314">
            122 -53 304 callgsubr
            return
          </CharString>
          <CharString index="315">
            102 callgsubr
            vstem
            return
          </CharString>
          <CharString index="316">
            540 100 20 vlineto
            endchar
          </CharString>
          <CharString index="317">
            20 hstemhm
            51 146 return
          </CharString>
          <CharString index="318">
            55 106 20 23 21 -18 19 207 57 callgsubr
            428 callgsubr
            return
          </CharString>
          <CharString index="319">
            164 -113 13 19 -139 97 58 9 42 30 25 42 rlinecurve
            6 callgsubr
            return
          </CharString>
          <CharString index="320">
            124 -55 55 -52 52 65 callsubr
            237 callgsubr
            33 145 return
          </CharString>
          <CharString index="321">
            -42 -33 -34 -42 -42 33 -33 42 42 33 33 42 return
          </CharString>
          <CharString index="322">
            hhcurveto
            -112 -36 -59 -52 -18 5 -15 3 -7 hvcurveto
            return
          </CharString>
          <CharString index="323">
            rlineto
            -74 callgsubr
            88 callgsubr
            return
          </CharString>
          <CharString index="324">
            55 -28 27 150 21 -18 19 125.5 103.5 -40 43 -23 131 callgsubr
            return
          </CharString>
          <CharString index="325">
            34 8 -21 293 24 114 31 78 20 hstemhm
            47 123 callsubr
            55 161 -111 140 15 129 return
          </CharString>
          <CharString index="326">
            231 callgsubr
            hintmask 10101100
            55 callsubr
            vhcurveto
            endchar
          </CharString>
          <CharString index="327">
            75 -84 -27 36 vvcurveto
            19 13 31 39 65 10 -99 -62 -122 -41 -80 -117 -76 -70 44 89 56 22 40 59 6 vhcurveto
            return
          </CharString>
          <CharString index="328">
            43 -23 302 callsubr
            88 34 callsubr
            return
          </CharString>
          <CharString index="329">
            55 281 191 callgsubr
            return
          </CharString>
          <CharString index="330">
            rlineto
            -8 -14 -18 -4 -17 -27 callgsubr
            return
          </CharString>
          <CharString index="331">
            0 124 -52 52 return
          </CharString>
          <CharString index="332">
            -106 callsubr
            350 vlineto
            return
          </CharString>
          <CharString index="333">
            81 callsubr
            115 callgsubr
            return
          </CharString>
          <CharString index="334">
            39 23 368 20 90 20 hstem
            return
          </CharString>
          <CharString index="335">
            266 callsubr
            hvcurveto
            return
          </CharString>
          <CharString index="336">
            86 callsubr
            endchar
          </CharString>
          <CharString index="337">
            11 13 rlineto
            21 -22 -33 11 -34 hhcurveto
            -17 -16 -2 -4 -16 hvcurveto
            return
          </CharString>
          <CharString index="338">
            19 -1 rlineto
            64 callgsubr
            return
          </CharString>
          <CharString index="339">
            -291 -200 11 -18 280 192 rlineto
            return
          </CharString>
          <CharString index="340">
            24 0 45 100 40 60 20 106 19 -11 37 return
          </CharString>
          <CharString index="341">
            317 callgsubr
            hstemhm
            30 66 return
          </CharString>
          <CharString index="342">
            92 37 84 97 22 30 -5 -7 14 return
          </CharString>
          <CharString index="343">
            -118 hlineto
            46 callsubr
            return
          </CharString>
          <CharString index="344">
            20 hstemhm
            34 -36 callsubr
            return
          </CharString>
          <CharString index="345">
            hlineto
            -3 -16 -2 -18 -20 vvcurveto
            return
          </CharString>
          <CharString index="346">
            hhcurveto
            58 42 -31 268 callgsubr
            return
          </CharString>
          <CharString index="347">
            -210 vlineto
            -72 callsubr
            hintmask 10111100
            -63 callgsubr
            216 return
          </CharString>
          <CharString index="348">
            170 callgsubr
            23 callsubr
            return
          </CharString>
          <CharString index="349">
            -10 191 callgsubr
            return
          </CharString>
          <CharString index="350">
            -337 vlineto
            -70 callsubr
            return
          </CharString>
          <CharString index="351">
            rmoveto
            128 callsubr
            return
          </CharString>
          <CharString index="352">
            28 133 120 return
          </CharString>
          <CharString index="353">
            7 0 -1 8 hvcurveto
            return
          </CharString>
          <CharString index="354">
            -20 10 18 rcurveline
            return
          </CharString>
          <CharString index="355">
            -21 31 33 -25 23 364 20 -16 20 90 33 callsubr
            114 152 return
          </CharString>
          <CharString index="356">
            -37 callsubr
            344 138 return
          </CharString>
          <CharString index="357">
            vstem
            -79 599 rmoveto
            165 -100 -20 35 -42 hhcurveto
            -18 -18 -14 -21 -13 7 -16 16 -16 hvcurveto
            30 -30 return
          </CharString>
          <CharString index="358">
            -79 -61 -60 -76 -89 61 -46 69 32 43 12 20 17 hvcurveto
            674 358 rmoveto
            -1242 -20 hlineto
            return
          </CharString>
          <CharString index="359">
            hlineto
            17 -35 35 -21 45 -6 rrcurveto
            -4 vlineto
            return
          </CharString>
          <CharString index="360">
            137 callgsubr
            122 140 return
          </CharString>
          <CharString index="361">
            -47 5 -40 42 53 vvcurveto
            42 20 38 51 return
          </CharString>
          <CharString index="362">
            279 callsubr
            101 return
          </CharString>
          <CharString index="363">
            11 -18 300 206 return
          </CharString>
          <CharString index="364">
            -38 131 -245 -17 75 334 callgsubr
            return
          </CharString>
          <CharString index="365">
            61 callgsubr
            -44 -37 22 25 vhcurveto
            430 callgsubr
            3 vlineto
            return
          </CharString>
          <CharString index="366">
            -325 vlineto
            -291 -174 11 -18 280 167 rlineto
            -80 -100 callgsubr
          </CharString>
          <CharString index="367">
            -61 20 52 -36 72 hhcurveto
            126 47 101 121 hvcurveto
            return
          </CharString>
          <CharString index="368">
            -100 -68 callgsubr
            -100 hlineto
            return
          </CharString>
          <CharString index="369">
            302 callgsubr
            hvcurveto
            return
          </CharString>
          <CharString index="370">
            316 callsubr
            130 return
          </CharString>
          <CharString index="371">
            68 -68 176 -20 20 hstemhm
            return
          </CharString>
          <CharString index="372">
            rmoveto
            44 22 32 42 42 19 return
          </CharString>
          <CharString index="373">
            -380 rmoveto
            -26 -15 22 28 return
          </CharString>
          <CharString index="374">
            77 390 callsubr
            408 20 hstemhm
            31 -75 callgsubr
            hintmask 11110100
            420 return
          </CharString>
          <CharString index="375">
            5 15 rlineto
            19 -21 -35 10 -34 hhcurveto
            -110 -65 -82 -108 -102 63 -91 103 hvcurveto
            3 hlineto
            return
          </CharString>
          <CharString index="376">
            20 hstemhm
            34 73 return
          </CharString>
          <CharString index="377">
            375 540 rmoveto
            117 20 -512 -20 255 -67 156 callsubr
            return
          </CharString>
          <CharString index="378">
            21 -21 72 52 -19 -9 callgsubr
            89 36 64 43 -23 390 callgsubr
            return
          </CharString>
          <CharString index="379">
            427 callsubr
            274 callsubr
            145 140 return
          </CharString>
          <CharString index="380">
            436 callsubr
            -65 -48 -29 -41 -25 hvcurveto
            149 vlineto
            endchar
          </CharString>
          <CharString index="381">
            221 122 callsubr
            return
          </CharString>
          <CharString index="382">
            hhcurveto
            -227 -92 -60 -83 -13 0 -15 7 -15 hvcurveto
            return
          </CharString>
          <CharString index="383">
            hhcurveto
            -60 -36 55 77 101 34 75 76 hvcurveto
            20 20 return
          </CharString>
          <CharString index="384">
            100 callgsubr
            79 140 return
          </CharString>
          <CharString index="385">
            -20 callsubr
            hvcurveto
            return
          </CharString>
          <CharString index="386">
            -82 -15 -38 -56 -67 vvcurveto
            -99 90 -49 return
          </CharString>
          <CharString index="387">
            -101 -43 -30 -50 -46 47 -25 47 -8 return
          </CharString>
          <CharString index="388">
            58 -27 53 -70 -57 -36 -45 -50 vhcurveto
            return
          </CharString>
          <CharString index="389">
            256 callsubr
            -11 18 rlineto
            return
          </CharString>
          <CharString index="390">
            444 callsubr
            145 return
          </CharString>
          <CharString index="391">
            20 90 20 hstemhm
            15 55 return
          </CharString>
          <CharString index="392">
            96 -37 58 -110 return
          </CharString>
          <CharString index="393">
            175 138 return
          </CharString>
          <CharString index="394">
            rmoveto
            -38 -26 rlineto
            -16 -23 -30 -10 -32 -90 callgsubr
            return
          </CharString>
          <CharString index="395">
            -21 39 23 10 155 callsubr
            363 callsubr
            35 150 return
          </CharString>
          <CharString index="396">
            rmoveto
            -129 209 129 hlineto
            -309 -241 rmoveto
            12 5 14 4 15 1 rrcurveto
            return
          </CharString>
          <CharString index="397">
            -21 39 23 70 52 221 55 -55 155 363 callsubr
            51 146 return
          </CharString>
          <CharString index="398">
            177 callgsubr
            vhcurveto
            return
          </CharString>
          <CharString index="399">
            155 310 callsubr
            return
          </CharString>
          <CharString index="400">
            -96 -67 -55 -101 -14 vhcurveto
            114 -2 -65 90 -97 hhcurveto
            -47 -39 -28 -41 -21 hvcurveto
            return
          </CharString>
          <CharString index="401">
            -67 callgsubr
            51 31 -48 -57 11 hvcurveto
            return
          </CharString>
          <CharString index="402">
            367 callsubr
            249 171 rlineto
            return
          </CharString>
          <CharString index="403">
            -13 callgsubr
            45 callgsubr
            hvcurveto
            return
          </CharString>
          <CharString index="404">
            9 12 8 19 28 vvcurveto
            430 callsubr
            return
          </CharString>
          <CharString index="405">
            330 callgsubr
            50 34 callsubr
            return
          </CharString>
          <CharString index="406">
            160 111 167 -115 13 19 rlineto
            return
          </CharString>
          <CharString index="407">
            vvcurveto
            -102 114 -49 105 105 116 49 102 return
          </CharString>
          <CharString index="408">
            vlineto
            -18 callgsubr
            247 callgsubr
            hvcurveto
            return
          </CharString>
          <CharString index="409">
            20 hstemhm
            28 89 callgsubr
            return
          </CharString>
          <CharString index="410">
            36 249 407 callgsubr
            return
          </CharString>
          <CharString index="411">
            318 callgsubr
            99 20 hstemhm
            return
          </CharString>
          <CharString index="412">
            hlineto
            -8 callsubr
            return
          </CharString>
          <CharString index="413">
            21 -21 105 393 callgsubr
            51 146 return
          </CharString>
          <CharString index="414">
            rmoveto
            38 -31 30 -38 -38 -30 -30 -38 -38 30 -31 38 -52 callgsubr
            vhcurveto
            return
          </CharString>
          <CharString index="415">
            rmoveto
            38 30 31 38 38 -30 30 -38 -38 -31 -30 -38 -38 31 -31 38 hvcurveto
            return
          </CharString>
          <CharString index="416">
            -30 -44 7 23 hvcurveto
            18 37 1 33 vvcurveto
            24 -23 21 -33 -38 -20 -25 -28 return
          </CharString>
          <CharString index="417">
            -44 callgsubr
            -20 20 hstemhm
            33 145 -63 138 82 140 return
          </CharString>
          <CharString index="418">
            41 25 31 42 39 21 -26 -35 return
          </CharString>
          <CharString index="419">
            45 140 -83 150 -86 32 return
          </CharString>
          <CharString index="420">
            5 -49 callsubr
            return
          </CharString>
          <CharString index="421">
            40 23 232 35 210 20 return
          </CharString>
          <CharString index="422">
            0 124 -123 24 return
          </CharString>
          <CharString index="423">
            62 callsubr
            -34 return
          </CharString>
          <CharString index="424">
            -395 -95 callsubr
            return
          </CharString>
          <CharString index="425">
            -4 29 -4 -21 return
          </CharString>
          <CharString index="426">
            -20 5 rlineto
            -30 -4 -25 -17 -27 hhcurveto
            -35 -31 26 51 53 39 32 49 return
          </CharString>
          <CharString index="427">
            -62 callsubr
            -72 85 -44 92 return
          </CharString>
          <CharString index="428">
            744 -107 hlineto
            190 callsubr
            return
          </CharString>
          <CharString index="429">
            rmoveto
            299 callgsubr
            -38 callgsubr
            return
          </CharString>
          <CharString index="430">
            -54 callsubr
            563 400 rmoveto
            -682 -20 176 hlineto
            return
          </CharString>
          <CharString index="431">
            -66 callgsubr
            430 hlineto
            endchar
          </CharString>
          <CharString index="432">
            vlineto
            278 callsubr
            return
          </CharString>
          <CharString index="433">
            hstemhm
            75 145 144 145 -98 97 return
          </CharString>
          <CharString index="434">
            99 7 99 126 5 7 0 -1 8 return
          </CharString>
          <CharString index="435">
            0 -5 -1 -5 hvcurveto
            return
          </CharString>
          <CharString index="436">
            rlineto
            -260 140 return
          </CharString>
          <CharString index="437">
            93 -93 146 return
          </CharString>
          <CharString index="438">
            -113 73 -71 return
          </CharString>
          <CharString index="439">
            vlineto
            343 callgsubr
            return
          </CharString>
          <CharString index="440">
            -12 vhcurveto
            -27 -3 54 -59 hhcurveto
            -30 -47 -23 -54 -54 46 -23 31 31 return
          </CharString>
          <CharString index="441">
            -51 -32 36 45 26 9 23 20 14 hvcurveto
            -2 17 18 -1 19 hhcurveto
            return
          </CharString>
          <CharString index="442">
            371 callsubr
            16 vhcurveto
            return
          </CharString>
          <CharString index="443">
            138 -43 20 205 43 117 -23 callsubr
            return
          </CharString>
          <CharString index="444">
            40 12 52 207 20 -1 55 -55 150 -20 269 callsubr
            return
          </CharString>
          <CharString index="445">
            hlineto
            -118 -87 return
          </CharString>
          <CharString index="446">
            144 140 return
          </CharString>
          <CharString index="447">
            -56 -18 -27 -46 -59 vvcurveto
            -51 29 -45 56 40 26 26 41 vhcurveto
            return
          </CharString>
          <CharString index="448">
            37 -34 19 369 35 -22 127 -20 390 callgsubr
            return
          </CharString>
          <CharString index="449">
            560 130 callgsubr
            return
          </CharString>
          <CharString index="450">
            20 33 20 63 54 -23 33 callsubr
            return
          </CharString>
          <CharString index="451">
            405 callgsubr
            -222 36 266 140 -50 25 return
          </CharString>
          <CharString index="452">
            hlineto
            -43 -18 -23 -36 -41 vvcurveto
            -59 54 -27 55 -10 vhcurveto
            -4 vlineto
            return
          </CharString>
          <CharString index="453">
            5 15 rlineto
            19 -21 -35 10 -34 hhcurveto
            -47 -38 -15 -25 -29 hvcurveto
            return
          </CharString>
          <CharString index="454">
            -82 -55 -29 -74 vhcurveto
            610 240 rmoveto
            -1242 -20 hlineto
            return
          </CharString>
          <CharString index="455">
            -210 vlineto
            -71 -6 -57 -42 -72 vvcurveto
            return
          </CharString>
          <CharString index="456">
            vvcurveto
            163 callgsubr
            return
          </CharString>
          <CharString index="457">
            244 138 33 408 callgsubr
            return
          </CharString>
          <CharString index="458">
            20 258 20 hstemhm
            286 callsubr
            return
          </CharString>
          <CharString index="459">
            1 24 370 20 125 20 hstem
            return
          </CharString>
          <CharString index="460">
            rlineto
            -54 180 callsubr
            return
          </CharString>
          <CharString index="461">
            256 callsubr
            rlineto
            return
          </CharString>
          <CharString index="462">
            20 129 20 hstem
            34 73 return
          </CharString>
          <CharString index="463">
            -118 20 178 140 return
          </CharString>
          <CharString index="464">
            vlineto
            -5 -19 -2 -21 -24 vvcurveto
            return
          </CharString>
          <CharString index="465">
            168 65 -73 -126 3 return
          </CharString>
          <CharString index="466">
            -99 21 -104 123 -9 vhcurveto
            return
          </CharString>
          <CharString index="467">
            21 -21 39 48 9 36 return
          </CharString>
          <CharString index="468">
            hmoveto
            -30 -15 21 29 hvcurveto
            return
          </CharString>
          <CharString index="469">
            82 39 -43 -82 2 hvcurveto
            return
          </CharString>
          <CharString index="470">
            -130 20 90 20 hstemhm
            return
          </CharString>
          <CharString index="471">
            hlineto
            35 229 rmoveto
            -20 return
          </CharString>
          <CharString index="472">
            vvcurveto
            -68 51 -37 64 return
          </CharString>
          <CharString index="473">
            496 hmoveto
            20 return
          </CharString>
          <CharString index="474">
            316 callgsubr
            vhcurveto
            3 hlineto
            -125 -86 11 -18 return
          </CharString>
          <CharString index="475">
            -9 14 rlineto
            -5 -7 -9 -3 -14 hhcurveto
            -43 -14 56 81 65 return
          </CharString>
          <CharString index="476">
            28 -20 20 -19 19 350 callsubr
            return
          </CharString>
          <CharString index="477">
            -4 29 -24 24 237 20 113 20 366 callgsubr
            return
          </CharString>
          <CharString index="478">
            121 callgsubr
            18 17 1 3 return
          </CharString>
          <CharString index="479">
            rmoveto
            113 -2 -69 125 -152 hhcurveto
            -102 -55 -57 -72 return
          </CharString>
          <CharString index="480">
            24 114 415 callsubr
            return
          </CharString>
          <CharString index="481">
            318 callsubr
            96 36 -27 55 102 20 27 21 -18 19 return
          </CharString>
          <CharString index="482">
            381 callsubr
            hlineto
            return
          </CharString>
          <CharString index="483">
            354 callsubr
            endchar
          </CharString>
          <CharString index="484">
            56 callgsubr
            204 140 hintmask 1111111101000000
            return
          </CharString>
          <CharString index="485">
            -27 callgsubr
            28 20 hlineto
            return
          </CharString>
          <CharString index="486">
            52 138 20 138 -49 callsubr
            return
          </CharString>
          <CharString index="487">
            hlineto
            -38 -47 5 12 -45 hvcurveto
            51 23 36 44 63 vvcurveto
            return
          </CharString>
          <CharString index="488">
            102 callsubr
            91 54 55 152 1 vhcurveto
            129 return
          </CharString>
          <CharString index="489">
            hhcurveto
            58 42 -31 153 callsubr
            return
          </CharString>
          <CharString index="490">
            -124 12 82 -42 100 hhcurveto
            402 callgsubr
            return
          </CharString>
          <CharString index="491">
            29 235 20 260 20 hstem
            180 138 vstem
            return
          </CharString>
          <CharString index="492">
            34 -42 -40 -35 -34 -42 -40 35 -35 40 hvcurveto
            endchar
          </CharString>
          <CharString index="493">
            52 421 callsubr
            return
          </CharString>
          <CharString index="494">
            318 560 rmoveto
            -338 -20 return
          </CharString>
          <CharString index="495">
            81 64 30 49 28 return
          </CharString>
          <CharString index="496">
            90 116 96 -59 return
          </CharString>
          <CharString index="497">
            21 -21 96 36 return
          </CharString>
          <CharString index="498">
            -161 138 return
          </CharString>
          <CharString index="499">
            80 callsubr
            hintmask 11010110
            return
          </CharString>
          <CharString index="500">
            416 callsubr
            -49 return
          </CharString>
          <CharString index="501">
            63 9 64 28 71 vvcurveto
            52 -31 32 -48 14 vhcurveto
            return
          </CharString>
          <CharString index="502">
            101 -51 -42 81 -93 hhcurveto
            -71 -48 -37 -49 -25 hvcurveto
            return
          </CharString>
          <CharString index="503">
            48 228 20 56 209 callgsubr
            return
          </CharString>
          <CharString index="504">
            20 264 callgsubr
            32 140 return
          </CharString>
          <CharString index="505">
            -77 -33 -44 -52 -67 63 -27 60 -8 hvcurveto
            -4 vlineto
            return
          </CharString>
          <CharString index="506">
            vvcurveto
            100 -101 48 -114 -151 -29 -86 -41 vhcurveto
            return
          </CharString>
          <CharString index="507">
            13 -19 160 111 return
          </CharString>
          <CharString index="508">
            -134 443 callgsubr
            return
          </CharString>
          <CharString index="509">
            145 128 145 return
          </CharString>
          <CharString index="510">
            429 callgsubr
            hlineto
            return
          </CharString>
          <CharString index="511">
            -38 -38 30 -30 38 38 return
          </CharString>
          <CharString index="512">
            99 hlineto
            65 34 -53 -57 return
          </CharString>
          <CharString index="513">
            -130 94 -78 140 return
          </CharString>
          <CharString index="514">
            -101 22 -112 return
          </CharString>
          <CharString index="515">
            -75 callgsubr
            hintmask 1101111010000000
            return
          </CharString>
          <CharString index="516">
            228 callgsubr
            109 20 return
          </CharString>
          <CharString index="517">
            -335 -68 13 351 14 309 12 hstemhm
            return
          </CharString>
          <CharString index="518">
            439 callgsubr
            vstem
            return
          </CharString>
          <CharString index="519">
            -24 -17 -28 -22 -27 hhcurveto
            -74 0 86 68 hvcurveto
            return
          </CharString>
          <CharString index="520">
            -55 -14 -49 -21 418 callsubr
            return
          </CharString>
          <CharString index="521">
            vvcurveto
            -78 62 -49 87 74 49 31 41 24 vhcurveto
            return
          </CharString>
          <CharString index="522">
            31 78 20 hstemhm
            49 123 callsubr
            return
          </CharString>
          <CharString index="523">
            279 callgsubr
            -33 -48 return
          </CharString>
          <CharString index="524">
            53 137 callgsubr
            return
          </CharString>
          <CharString index="525">
            -62 hhcurveto
            52 callsubr
            return
          </CharString>
          <CharString index="526">
            130 -234 -20 61 vvcurveto
            return
          </CharString>
          <CharString index="527">
            317 callgsubr
            hstem
            return
          </CharString>
          <CharString index="528">
            356 210 callsubr
            return
          </CharString>
          <CharString index="529">
            195 210 callgsubr
            return
          </CharString>
          <CharString index="530">
            -20 79 210 callgsubr
            return
          </CharString>
          <CharString index="531">
            146 -112 28 return
          </CharString>
          <CharString index="532">
            0 124 -55 55 return
          </CharString>
          <CharString index="533">
            389 540 rmoveto
            return
          </CharString>
          <CharString index="534">
            21 392 callgsubr
            return
          </CharString>
          <CharString index="535">
            rmoveto
            -142 -97 rlineto
            return
          </CharString>
          <CharString index="536">
            326 vlineto
            45 6 return
          </CharString>
          <CharString index="537">
            89 -57 39 -87 vhcurveto
            return
          </CharString>
          <CharString index="538">
            239 20 rmoveto
            return
          </CharString>
          <CharString index="539">
            -82 -15 -38 -56 -67 vvcurveto
            -99 88 -49 99 return
          </CharString>
          <CharString index="540">
            227 callsubr
            15 55 return
          </CharString>
          <CharString index="541">
            -84 -15 -39 -54 -68 vvcurveto
            -99 90 -49 94 return
          </CharString>
          <CharString index="542">
            -85 -46 -47 -65 -15 3 -13 7 -12 hvcurveto
            return
          </CharString>
          <CharString index="543">
            111 97 rlineto
            43 -29 -56 28 -61 hhcurveto
            return
          </CharString>
          <CharString index="544">
            vvcurveto
            285 callsubr
            -79 -61 -60 -76 return
          </CharString>
          <CharString index="545">
            vvcurveto
            -46 26 -42 60 73 42 48 68 vhcurveto
            return
          </CharString>
          <CharString index="546">
            -80 -53 -53 -68 -73 53 -45 81 -13 hvcurveto
            return
          </CharString>
          <CharString index="547">
            -71 -4 -57 -25 -72 vvcurveto
            102 callsubr
            return
          </CharString>
          <CharString index="548">
            -54 5 -57 19 60 vvcurveto
            46 29 22 37 return
          </CharString>
          <CharString index="549">
            94 -39 73 -81 25 vhcurveto
            97 vlineto
            endchar
          </CharString>
          <CharString index="550">
            rmoveto
            -604 -20 return
          </CharString>
          <CharString index="551">
            140 156 return
          </CharString>
        <CharString name=".notdef">
          -61 0 49 603 49 hstem
          0 51 400 51 vstem
          0 vmoveto
          502 701 -502 hlineto
          51 -49 rmoveto
          400 -603 -400 hlineto
          200 253 rmoveto
          105 -209 rlineto
          60 hlineto
          -135 254 135 261 rlineto
          -60 hlineto
          -100 -206 rlineto
          -4 hlineto
          -105 206 rlineto
          -60 hlineto
          134 -255 -134 -260 rlineto
          60 hlineto
          100 209 rlineto
          endchar
        </CharString>
        <CharString name="CR">
          -563 endchar
        </CharString>
        <CharString name="Euro">
          -23 -12 20 198 20 129 20 176 20 hstem
          50 155 281 18 vstem
          486 221 rmoveto
          -128 -10 -21 -85 -121 hhcurveto
          -83 -37 62 136 -8 hvcurveto
          155 20 -155 hlineto
          -1 12 0 13 13 vvcurveto
          31 1 31 3 29 vhcurveto
          152 20 -150 hlineto
          101 12 36 75 88 hhcurveto
          88 37 -70 -113 15 hvcurveto
          16 hlineto
          2 164 rlineto
          28 -63 -35 11 -67 hhcurveto
          -138 -103 -68 -128 -35 hvcurveto
          -80 -20 75 hlineto
          -6 -27 -3 -30 -32 vvcurveto
          -14 1 -13 1 -13 vhcurveto
          -68 -20 70 hlineto
          -139 22 101 -79 154 hhcurveto
          69 42 10 29 63 hvcurveto
          -2 194 rlineto
          endchar
        </CharString>
        <CharString name="ITF">
          1085 21 -21 224 185 40 185 hstem
          147 196 40 196 40 196 40 196 40 196 40 196 vstem
          147 hmoveto
          177 callsubr
          236 -634 rmoveto
          177 callsubr
          236 -634 rmoveto
          177 callsubr
          -410 vmoveto
          196 185 -196 hlineto
          endchar
        </CharString>
        <CharString name="NULL">
          -563 endchar
        </CharString>
        <CharString name="Rupee">
          -120 -4 29 235 20 137 20 103 20 hstem
          208 138 vstem
          421 560 rmoveto
          -391 -20 55 hlineto
          75 38 -35 -68 8 hvcurveto
          -176 -20 178 -10 hlineto
          -86 -49 -41 -89 vhcurveto
          -104 callgsubr
          vlineto
          118 7 88 45 93 vvcurveto
          10 75 20 -78 vlineto
          -9 51 -35 39 -60 13 rrcurveto
          182 hlineto
          endchar
        </CharString>
        <CharString name="ZWJ">
          -563 -209 -21 1014 -20 hstem
          -23 47 vstem
          129 593 rmoveto
          -96 95 96 96 -32 32 -96 -95 -95 95 -33 -33 95 -95 -93 -93 33 -33 69 73 rlineto
          -865 47 865 vlineto
          72 -75 rlineto
          endchar
        </CharString>
        <CharString name="ZWNJ">
          -563 -209 -21 hstem
          -23 47 vstem
          24 -230 rmoveto
          1041 -47 -1041 vlineto
          endchar
        </CharString>
        <CharString name="approxequal">
          40 callsubr
        </CharString>
        <CharString name="asciicircum">
          -221 198 291 hstem
          30 282 vstem
          171 455 rmoveto
          123 -257 18 8 -135 283 rlineto
          -12 hlineto
          -135 -283 17 -8 rlineto
          endchar
        </CharString>
        <CharString name="asciitilde">
          40 callsubr
        </CharString>
        <CharString name="asterisk">
          -18 298 70 hstem
          236 72 vstem
          261 234 rmoveto
          2 5 0 6 -4 2 -5 3 -5 -2 -3 -3 -7 -7 -98 -98 -22 -23 -14 -15 -1 -25 19 -15 17 -12 29 8 9 16 16 28 60 118 7 14 rrcurveto
          -21 33 rmoveto
          5 -1 5 3 1 4 1 4 -2 5 -5 3 -10 5 -121 62 -30 13 -21 9 -24 -9 -6 -21 -8 -21 16 -21 20 -4 31 -6 133 -23 15 -2 rrcurveto
          65 hmoveto
          15 2 133 23 31 6 20 4 16 21 -8 21 -6 21 -24 9 -21 -9 -30 -13 -121 -62 -10 -5 -5 -3 -2 -5 1 -4 1 -4 5 -3 5 1 rrcurveto
          -20 -33 rmoveto
          7 -14 60 -118 16 -28 9 -16 29 -8 17 12 19 15 -1 25 -14 15 -22 23 -98 98 -7 7 -3 3 -5 2 -5 -3 -4 -2 0 -6 2 -5 rrcurveto
          -4 63 rmoveto
          2 12 22 137 3 30 rrcurveto
          19 1 -15 20 -22 hhcurveto
          -23 -14 -19 -20 1 hvcurveto
          3 -32 22 -136 2 -11 rrcurveto
          1 -4 4 -4 4 4 4 4 1 hflex1
          endchar
        </CharString>
        <CharString name="backslash">
          -299 16 -21 27 -21 563 -20 hstemhm
          40 184 hintmask 01110000
          58 564 rmoveto
          -18 -5 rlineto
          hintmask 10110000
          165 -564 rlineto
          hintmask 01110000
          19 6 rlineto
          endchar
        </CharString>
        <CharString name="bar">
          -423 -99 684 hstem
          60 20 vstem
          60 -99 rmoveto
          20 684 -20 hlineto
          endchar
        </CharString>
        <CharString name="braceleft">
          410 callsubr
          20 60 -10 79 hintmask 11101000
          149 219 rmoveto
          54 -26 27 -43 vhcurveto
          5 vlineto
          43 26 28 54 hvcurveto
          144 vlineto
          59 23 29 36 vhcurveto
          12 vlineto
          -70 -68 -30 -121 hvcurveto
          -109 vlineto
          -35 -8 -28 -42 2 vhcurveto
          hintmask 11110000
          -14 vlineto
          hintmask 11101000
          29 21 -16 -38 hvcurveto
          -160 vlineto
          -111 80 -39 58 vhcurveto
          13 vlineto
          -36 -23 28 58 hvcurveto
          endchar
        </CharString>
        <CharString name="braceright">
          410 callsubr
          79 79 -10 60 hintmask 11110000
          79 31 rmoveto
          -58 -23 -28 -36 vhcurveto
          -13 vlineto
          58 80 39 111 hvcurveto
          160 vlineto
          38 21 16 29 vhcurveto
          hintmask 11101000
          14 vlineto
          hintmask 11110000
          -42 -2 -8 28 35 vvcurveto
          109 vlineto
          121 -68 30 -70 vhcurveto
          -12 vlineto
          36 23 -29 -59 hvcurveto
          -144 vlineto
          -54 26 -28 43 vhcurveto
          -5 vlineto
          -43 -26 -27 -54 hvcurveto
          endchar
        </CharString>
        <CharString name="bracketleft">
          -353 -47 20 634 20 hstem
          40 74 vstem
          40 -47 rmoveto
          160 20 -86 634 86 20 -160 hlineto
          endchar
        </CharString>
        <CharString name="bracketright">
          -353 -77 20 684 20 hstem
          96 74 vstem
          170 647 rmoveto
          -160 -20 86 -684 -86 -20 160 hlineto
          endchar
        </CharString>
        <CharString name="bullet">
          -244 209 239 hstem
          40 239 vstem
          40 329 rmoveto
          -67 53 -53 67 66 53 53 67 66 -53 53 -66 -67 -53 -53 -66 vhcurveto
          endchar
        </CharString>
        <CharString name="cent">
          -160 92 48 278 25 hstem
          40 133 92 98 vstem
          189 193 rmoveto
          -11 24 -5 29 27 vvcurveto
          53 20 92 75 14 13 -4 -6 10 vhcurveto
          -23 -4 -17 -21 -24 vvcurveto
          -3 0 -3 1 -4 vhcurveto
          97 14 rmoveto
          -2 25 -16 20 -23 13 31 63 rcurveline
          -17 8 -30 -63 rlineto
          9 -21 -24 5 -22 hhcurveto
          -100 -99 -60 -120 -83 45 -54 59 -22 hvcurveto
          -28 -58 18 -9 30 61 rlineto
          -4 15 16 -2 16 hhcurveto
          62 66 31 66 20 hvcurveto
          -15 5 rlineto
          -19 -9 -24 -35 -45 hhcurveto
          -29 -21 13 20 -15 hvcurveto
          75 155 rlineto
          -11 9 14 -7 15 hhcurveto
          27 22 22 27 hvcurveto
          endchar
        </CharString>
        <CharString name="colon">
          -299 -5 154 149 154 hstem
          50 154 vstem
          50 72 rmoveto
          205 callsubr
          303 vmoveto
          205 callsubr
          endchar
        </CharString>
        <CharString name="comma">
          -325 -11 184 -163 -21 hstemhm
          214 39 hintmask 01100000
          105 -155 rmoveto
          41 19 28 23 31 34 rrcurveto
          29 31 19 44 49 vvcurveto
          hintmask 10100000
          63 -42 65 -69 -59 -43 -41 -52 -53 38 -38 51 17 14 5 6 12 vhcurveto
          15 8 10 9 9 -5 15 -9 -5 -42 -38 -38 -23 -23 -27 -22 -32 -14 rrcurveto
          endchar
        </CharString>
        <CharString name="copyright">
          39 10 20 89 19 292 19 84 20 hstemhm
          30 20 98 95 164 15.5 -11.5 15 126 20 hintmask 1111111010000000
          41 callgsubr
          -150 -37 rmoveto
          -15 hlineto
          -54 -4 -15 -53 -64 hhcurveto
          -53 -28 45 92 65 13 90 78 hvcurveto
          hintmask 1111110110000000
          40 31 -33 -58 6 hvcurveto
          14 hlineto
          2 86 rlineto
          15 -24 -34 9 -38 hhcurveto
          -99 -84 -64 -109 -95 75 -62 99 hvcurveto
          hintmask 1111111010000000
          33 41 8 15 27 hvcurveto
          endchar
        </CharString>
        <CharString name="dagger">
          -92 426 19 hstemhm
          226 19 -16 13 hintmask 11000000
          236 671 rmoveto
          -43 -34 -34 -36 -36 17 -20 24 -20 hvcurveto
          17 -14 9 -15 -19 vvcurveto
          -20 -8 -12 333 callsubr
          26 18 25 9 hvcurveto
          28 11 6 10 11 hhcurveto
          12 3 -12 -19 -20 -1 -73 -80 -33 hvcurveto
          hintmask 10100000
          40 -89 44 -217 -143 vvcurveto
          13 hlineto
          143 44 217 40 89 vhcurveto
          hintmask 11000000
          -81 33 0 73 20 vvcurveto
          19 3 12 12 11 6 -9 -29 11 vhcurveto
          -25 9 25 -18 32 hhcurveto
          31 46 23 54 54 -48 23 -29 hvcurveto
          -61 0 -54 -29 hhcurveto
          -11 -8 12 20 20 12 18 13 10 hvcurveto
          25 20 17 20 36 vvcurveto
          36 -35 34 -41 vhcurveto
          endchar
        </CharString>
        <CharString name="daggerdbl">
          -92 90 19 317 19 hstem
          226 19 vstem
          154 265 rmoveto
          66 -36 6 -70 -20 vvcurveto
          -19 -4 -11 -11 -11 -5 7 31 -12 vhcurveto
          25 -10 -25 18 -31 hhcurveto
          -31 -46 -23 -54 -54 47 -23 30 hvcurveto
          59 3 54 27 hhcurveto
          12 8 -11 -20 -21 -9 -13 -15 -13 hvcurveto
          -24 -20 -19 -20 -36 vvcurveto
          -36 34 -37 43 41 35 37 36 36 -18 18 -25 21 vhcurveto
          -13 11 -11 16 21 vvcurveto
          20 8 11 11 vhcurveto
          29 0 -54 61 hhcurveto
          40 37 31 47 52 -46 24 -31 -34 -24 -20 -25 -9 hvcurveto
          -30 -11 -6 -6 -10 hhcurveto
          -12 -3 11 19 52 28 52 44 22 hvcurveto
          4 vlineto
          -44 22 -28 53 52 vvcurveto
          19 3 11 12 10 6 -6 -30 11 vhcurveto
          -25 9 24 -20 34 hhcurveto
          31 46 24 52 47 -37 31 -40 hvcurveto
          -61 0 -54 -29 hhcurveto
          -11 -8 11 20 21 11 16 13 11 hvcurveto
          25 21 18 18 36 vvcurveto
          36 -35 37 -41 -43 -34 -37 -36 -36 19 -20 24 -20 vhcurveto
          15 -13 9 -13 -21 vvcurveto
          -20 -8 -11 333 callsubr
          25 18 25 10 hvcurveto
          31 12 5 7 11 hhcurveto
          11 4 -11 -19 -20 -6 -71 -66 -36 hvcurveto
          endchar
        </CharString>
        <CharString name="degree">
          -257 356 15 194 15 hstem
          41 15 194 15 vstem
          41 467 rmoveto
          -60 51 -51 60 62 51 51 60 62 -51 51 -62 -60 -51 -51 -62 vhcurveto
          15 hmoveto
          53 45 45 51 53 45 -45 -53 -51 -45 -45 -53 -51 -45 45 51 vhcurveto
          endchar
        </CharString>
        <CharString name="divide">
          -78 184 114 vstem
          445 242 rmoveto
          -405 -20 405 hlineto
          -261 140 rmoveto
          -31 25 -26 32 31 26 26 31 31 -26 26 -31 -32 -25 -26 -31 vhcurveto
          -260 vmoveto
          -32 25 -25 32 31 26 25 32 31 -26 26 -31 -32 -25 -26 -31 vhcurveto
          endchar
        </CharString>
        <CharString name="dollar">
          -92 -10 20 -18 18 6 -21 64 110 240 110 50 18 hstemhm
          40 110 -105 87 49 20 58 20 27 110 -76 91 hintmask 1000110111010000
          279 204 rmoveto
          34 -21 27 -25 -43 vvcurveto
          -39 -20 -41 -41 -16 vhcurveto
          -20 355 rmoveto
          -24 9 -20 8 -14 8 rrcurveto
          165 vlineto
          15 4 20 2 23 -1 rrcurveto
          -557 vmoveto
          -15 -4 -22 1 -21 1 rrcurveto
          233 vlineto
          22 -10 19 -8 17 -10 rrcurveto
          -78 194 rmoveto
          -31 17 -18 18 37 vvcurveto
          36 23 28 27 11 vhcurveto
          97 11 rmoveto
          hintmask 1000110111100000
          42 -7 33 -20 19 -22 rrcurveto
          1 -4 -4 0 -4 hhcurveto
          -30 -25 -24 -30 -30 25 -26 30 31 24 26 30 hvcurveto
          2 vlineto
          hintmask 0101111011010000
          -2 45 -44 61 -91 13 rrcurveto
          42 -20 -39 vlineto
          -14 1 -29 0 -15 -3 rrcurveto
          41 -20 -45 vlineto
          -79 -18 -57 -50 -98 vvcurveto
          -85 60 -46 76 -34 vhcurveto
          -239 vlineto
          -49 7 -31 22 -17 18 rrcurveto
          -1 3 4 0 4 hhcurveto
          31 24 25 30 30 -24 25 -31 -30 -25 -25 -30 hvcurveto
          -1 vlineto
          -5 1 -4 1 -4 vhcurveto
          10 -48 46 -49 83 -11 rrcurveto
          hintmask 1000110111010000
          -38 20 36 vlineto
          19 -1 17 0 22 3 rrcurveto
          hintmask 0010110111010000
          -38 20 41 vlineto
          87 15 65 58 107 vvcurveto
          108 -67 46 -85 36 vhcurveto
          endchar
        </CharString>
        <CharString name="dv_a">
          146 226 callsubr
          hintmask 1111101101000000
          729 560 rmoveto
          -297 20 callsubr
          hintmask 1111011101000000
          162 callgsubr
          hintmask 1111101101000000
          17 callsubr
          hintmask 1111101011000000
          -35 callsubr
          100 vlineto
          endchar
        </CharString>
        <CharString name="dv_aa">
          446 226 callsubr
          160 140 hintmask 1111101101100000
          1029 560 1 callsubr
        </CharString>
        <CharString name="dv_abbreviation">
          -136 106 19 284 16 hstem
          43 116 114 117 vstem
          215 409 rmoveto
          50 8 -38 -98 -88 -7 -60 -48 -53 -6 58 90 97 10 39 46 hvcurveto
          175 -141 rmoveto
          85 -66 72 -100 -96 -85 -54 -105 -83 53 -77 115 102 77 56 106 vhcurveto
          endchar
        </CharString>
        <CharString name="dv_acuteaccent">
          -563 795 -20 hstem
          -204 204 vstem
          -201 629 rmoveto
          3 -1 rlineto
          78 15 120 27 78 vvcurveto
          25 -19 22 -29 -50 -5 -50 -46 -29 vhcurveto
          -15 -23 -23 -23 -32 -13 -2 -3 rcurveline
          endchar
        </CharString>
        <CharString name="dv_ai">
          1 314 callsubr
          230 -20 326 callsubr
          hintmask 11111100
          395 603 rmoveto
          -31 callgsubr
          199 -29 rmoveto
          -604 109 callsubr
          108 callsubr
          hintmask 11111010
          174 callgsubr
          hintmask 11111100
          18 callsubr
        </CharString>
        <CharString name="dv_anudatta">
          -563 -148 20 hstem
          -517 462 vstem
          -517 -148 377 callgsubr
        </CharString>
        <CharString name="dv_anusvara">
          -563 625 151 hstem
          -225 150 vstem
          -75 700 rmoveto
          42 -33 34 -42 214 callsubr
          vhcurveto
          endchar
        </CharString>
        <CharString name="dv_anusvara_adjust">
          -563 625 151 hstem
          144 150 vstem
          294 700 rmoveto
          42 -33 34 -42 214 callsubr
          vhcurveto
          endchar
        </CharString>
        <CharString name="dv_au">
          450 226 callsubr
          160 140 hintmask 1111101101100000
          951 -30 callsubr
          158 -15 1 callsubr
        </CharString>
        <CharString name="dv_aum">
          397 1 24 5 35 -35 43 240 20 101 19 31 93 -53 36 77 137 hstemhm
          5 56 174 144 -119 147 -16 14 87 137 89 14 53 150 hintmask 1001101110011110
          561 637 308 callsubr
          hintmask 0101110110011110
          169 16 rmoveto
          -10 2 -28 callgsubr
          -17 -586 rmoveto
          -28 -41 25 50 -12 hvcurveto
          120 56 9 174 47 hhcurveto
          27 12 -22 -156 -90 -5 -101 -65 hvcurveto
          hintmask 1001101110101110
          -478 264 rmoveto
          hintmask 1001101111011110
          81 12 61 33 79 vvcurveto
          58 -66 49 -96 -74 -40 -28 -15 -15 vhcurveto
          12 -14 rlineto
          8 8 24 13 27 hhcurveto
          40 36 -25 -57 -72 -40 -37 -75 hvcurveto
          -13 -20 13 hlineto
          hintmask 1001101110101110
          108 32 -67 -67 -96 -29 -58 -72 -53 -45 23 22 20 30 -4 22 10 hvcurveto
          26 10 19 21 31 vvcurveto
          40 -28 29 -42 -47 -36 -34 -55 -89 76 -48 95 102 72 31 56 34 vhcurveto
          hintmask 0011101110101110
          -35 22 37 -23 53 hhcurveto
          58 39 36 50 29 hvcurveto
          hintmask 0101101110011110
          -49 19 45 -37 78 hhcurveto
          112 59 88 134 149 -92 52 -89 hvcurveto
          hintmask 0011101110101110
          -270 36 -380 -85 hhcurveto
          -16 -14 12 23 -11 hvcurveto
          9 20 4 22 25 vvcurveto
          hintmask 1001101110101110
          89 -62 49 -108 12 vhcurveto
          endchar
        </CharString>
        <CharString name="dv_avagraha">
          -80 7 20 513 20 hstem
          44 117 154 110 vstem
          25 92 rmoveto
          -47 51 66 -38 79 hhcurveto
          110 94 54 101 hvcurveto
          193 -264 31 106 vvcurveto
          35 31 13 50 vhcurveto
          160 20 -180 hlineto
          -114 -64 -47 -76 hvcurveto
          -170 271 -20 -135 vvcurveto
          -51 -38 -34 -60 -73 -59 35 46 -48 vhcurveto
          endchar
        </CharString>
        <CharString name="dv_b_ba">
          294 21 -21 72 13 callgsubr
          143 -32 callgsubr
          hintmask 11101111
          638 211 rmoveto
          -6 callgsubr
          -158 -127 rmoveto
          3 -21 5 -19 7 -17 -15 -25 -24 -18 -33 -1 -20 callgsubr
          682 208 rmoveto
          -897 -20 658 -301 hlineto
          hintmask 11010111
          -143 135 216 callsubr
          hvcurveto
          -3 vlineto
          hintmask 11010111
          -126 119 182 callgsubr
          58 55 22 52 33 hvcurveto
          -50 33 55 -24 59 100 callsubr
          -71 callgsubr
        </CharString>
        <CharString name="dv_b_bh_ra">
          366 271 callsubr
          154 123 callgsubr
          hintmask 1100110110111000
          325 560 rmoveto
          -345 -20 345 hlineto
          hintmask 1011010111011000
          81 -380 -50 callgsubr
          hintmask 1100110111011000
          -67 57 rmoveto
          -7 vlineto
          -9 1 -8 2 -8 vhcurveto
          -10 -32 -19 -27 -40 -2 -20 callgsubr
          749 208 rmoveto
          -303 422 callgsubr
          hintmask 1101011010111000
          -69 callsubr
          -7 vlineto
          -60 -5 -50 -31 -14 -53 -141 133 199 callgsubr
          61 58 28 55 23 hvcurveto
          hintmask 1010110110111000
          -33 19 38 -17 44 hhcurveto
          199 callsubr
        </CharString>
        <CharString name="dv_b_bha">
          364 271 callsubr
          152 123 callgsubr
          hintmask 1100110110111000
          320 560 rmoveto
          -340 -20 340 hlineto
          hintmask 1011010111011000
          84 -380 -50 callgsubr
          hintmask 1100110111011000
          -67 58 rmoveto
          -8 vlineto
          -10 1 -10 2 -9 vhcurveto
          -9 -30 -20 -26 -38 -1 -20 callgsubr
          752 208 rmoveto
          -308 422 callgsubr
          hintmask 1101011010111000
          -69 callsubr
          -7 vlineto
          -59 -5 -50 -30 -15 -52 -139 131 199 callgsubr
          60 58 27 54 23 hvcurveto
          hintmask 1010110110111000
          -31 20 37 -17 43 hhcurveto
          200 callgsubr
        </CharString>
        <CharString name="dv_b_da">
          219 24 22 26 52 285 445 callgsubr
          -140 -15 callsubr
          152 92 callgsubr
          hintmask 1110001111000000
          337 218 rmoveto
          1 -12 1 -11 2 -11 -9 -31 -20 -27 -39 -2 -20 callgsubr
          487 188 rmoveto
          120 20 -822 -20 562 -118 hlineto
          -113 -85 -69 -107 -7 hvcurveto
          hintmask 1000010111000000
          -135 128 rlineto
          -74 callgsubr
          hintmask 1100101111000000
          -82 callgsubr
          59 56 26 52 25 hvcurveto
          hintmask 1001000110100000
          -84 31 82 -42 107 hhcurveto
          16 23 2 5 22 hvcurveto
          35 -41 50 -29 40 247 callsubr
          -89 callsubr
          hintmask 1001000111000000
          -17 callgsubr
        </CharString>
        <CharString name="dv_b_dh_va">
          632 0 124 -85 48 -15 52 191 20 85 -15 callsubr
          152 56 callgsubr
          176 -32 callgsubr
          hintmask 1001101110110000
          340 216 rmoveto
          -2 -9 -1 -10 -10 vvcurveto
          -5 0 -4 1 -5 vhcurveto
          -11 -26 -19 -22 -35 -1 -20 callgsubr
          1020 208 rmoveto
          -567 -20 328 -21 callsubr
          hintmask 1001010101110000
          -76 callgsubr
          vhcurveto
          hintmask 0101101110110000
          -92 callsubr
          -58 18 -44 28 -31 hvcurveto
          -23 -32 -38 -15 -42 hhcurveto
          -71 -47 41 71 63 32 53 71 hvcurveto
          26 20 hlineto
          hintmask 1001101101110000
          -41 callsubr
          -605 -20 441 vlineto
          -42 callgsubr
          -60 -11 -36 -32 -15 -43 rrcurveto
          hintmask 1001010101110000
          -144 135 rlineto
          -74 callgsubr
          hintmask 0011101101110000
          -82 callgsubr
          55 52 22 45 27 hvcurveto
          hintmask 0101101101110000
          -67 24 75 -33 77 hhcurveto
          90 71 30 41 46 hvcurveto
          hintmask 0011101101110000
          -26 32 40 -12 42 100 callsubr
          hintmask 1001101101110000
          -71 callgsubr
        </CharString>
        <CharString name="dv_b_dha">
          353 0 87 -48 48 -15 52 191 20 85 -15 callsubr
          156 143 -132 140 204 140 hintmask 0011101110100000
          341 214 rmoveto
          -1 -8 -1 -10 0 -9 0 -9 1 -8 -8 flex1
          -16 -22 -22 -15 -30 -1 -20 callgsubr
          455 208 rmoveto
          -20 46 vlineto
          hintmask 1001101110100000
          -371 vlineto
          -54 -9 -46 -28 -44 2 callgsubr
          hintmask 1001101101100000
          -41 callsubr
          -607 -20 443 vlineto
          -42 callgsubr
          -60 -11 -37 -33 -15 -44 rrcurveto
          hintmask 1001010110100000
          -145 137 rlineto
          -74 callgsubr
          hintmask 0011101110100000
          -82 callgsubr
          53 51 19 43 34 hvcurveto
          hintmask 0101101110100000
          -63 26 73 -32 75 hhcurveto
          388 callsubr
          hvcurveto
          hintmask 1001101110100000
          245 callgsubr
        </CharString>
        <CharString name="dv_b_j_ya">
          820 21 -21 39 23 10 52 -28 36 288 36 -36 140 363 callsubr
          35 150 130 181 callgsubr
          59 -75 callgsubr
          hintmask 1101001111110100
          1163 -104 callsubr
          hintmask 1110001111101100
          -103 callgsubr
          -836 -312 rmoveto
          -8 -15 -4 -17 -17 vvcurveto
          -13 1 -12 3 -11 vhcurveto
          -11 -11 -15 -7 -20 -1 -20 callgsubr
          1208 208 rmoveto
          -1423 -20 822 303 callgsubr
          -487 -20 hlineto
          104 -1 32 -67 -117 vvcurveto
          hintmask 1101010011110100
          329 callgsubr
          -42 22 25 19 21 -2 24 8 vhcurveto
          36 11 16 25 29 195 callsubr
          -24 -20 -10 -16 -15 vhcurveto
          -137 129 rlineto
          -74 callgsubr
          hintmask 1110100111110100
          -82 callgsubr
          45 43 15 30 29 hvcurveto
          hintmask 1101001111101100
          -52 26 59 -26 76 114 callsubr
          358 362 callgsubr
          hintmask 1101001111110100
          -7 -10 1 0 hvcurveto
          -1 -7 -1 -10 -15 vvcurveto
          -92 callgsubr
        </CharString>
        <CharString name="dv_b_ja">
          434 21 288 callsubr
          132 263 callgsubr
          hintmask 1100011111100000
          329 226 rmoveto
          hintmask 1110011111100000
          -8 -14 -4 -16 -17 vvcurveto
          -14 1 -12 3 -12 vhcurveto
          -13 -10 -16 -6 -19 -1 -20 callgsubr
          822 208 rmoveto
          -1037 -20 797 -90 -346 -20 hlineto
          104 -1 32 -67 -117 vvcurveto
          hintmask 1100100111100000
          329 callgsubr
          -37 22 25 vhcurveto
          36 97 -27 81 195 callsubr
          -25 -20 -11 -16 -15 vhcurveto
          -138 130 rlineto
          -74 callgsubr
          hintmask 1111001111100000
          -82 callgsubr
          45 42 13 30 33 hvcurveto
          hintmask 1100011111100000
          -51 24 57 -25 74 114 callsubr
          216 -430 -100 callsubr
          vlineto
          endchar
        </CharString>
        <CharString name="dv_b_ja.nukta">
          454 -148 138 31 288 callsubr
          152 152 -67 138 27 211 callgsubr
          hintmask 1110001110111000
          491 -10 -107 callsubr
          hintmask 0111001111011000
          -148 223 rmoveto
          -4 -11 -2 -11 -12 vvcurveto
          -7 0 -7 1 -7 vhcurveto
          -15 -19 -21 -14 -29 -1 -20 callgsubr
          842 208 rmoveto
          -1057 -20 817 -90 -346 -20 hlineto
          104 -1 32 -67 -117 vvcurveto
          hintmask 0110010011011000
          329 callgsubr
          -37 22 25 vhcurveto
          36 97 -27 81 195 callsubr
          -30 -24 -16 -22 -14 vhcurveto
          -150 141 rlineto
          -74 callgsubr
          hintmask 0111100111011000
          -82 callgsubr
          51 49 17 40 34 hvcurveto
          hintmask 0110001111011000
          -60 20 60 -30 81 114 callsubr
          216 -430 -100 callsubr
          vlineto
          endchar
        </CharString>
        <CharString name="dv_b_jha">
          523 7 20 -6 -21 72 52 75 20 201 36 -36 140 -130 23 87 390 callgsubr
          210 255 callgsubr
          90 140 hintmask 1011001111010100
          866 225 callgsubr
          -500 -348 rmoveto
          -41 -25 -29 -27 -39 hhcurveto
          -64 -24 21 callgsubr
          911 208 rmoveto
          -1126 -20 593 162 callsubr
          vvcurveto
          -21 5 -17 9 -14 vhcurveto
          -10 -26 -11 -25 -12 -22 rrcurveto
          hintmask 1011010011010100
          -174 164 rlineto
          -74 callgsubr
          hintmask 1011100110101100
          -82 callgsubr
          95 72 61 133 45 hvcurveto
          70 -70 175 7 -94 vvcurveto
          331 callgsubr
          -14 -13 1 1 -12 vhcurveto
          -83 callgsubr
          14 -2 12 -3 11 hvcurveto
          95 hlineto
          hintmask 0111001111010100
          -199 -100 callgsubr
        </CharString>
        <CharString name="dv_b_la">
          468 31 33 8 155 callsubr
          401 callsubr
          35 150 152 -8 callgsubr
          hintmask 1100111101000000
          338 218 rmoveto
          1 -18 2 -17 4 -16 -16 -24 -23 -18 -33 -1 -20 callgsubr
          856 188 rmoveto
          20 -1071 -20 749 -107 vlineto
          190 callsubr
          -110 -81 -75 -124 -3 hvcurveto
          hintmask 1001001110100000
          -135 127 rlineto
          -74 callgsubr
          hintmask 1110011110100000
          -82 callgsubr
          56 52 20 47 34 hvcurveto
          hintmask 1000111110100000
          -63 22 50 -45 88 hhcurveto
          -98 callsubr
          -94 callsubr
          hvcurveto
          hintmask 1000111101000000
          31 callsubr
        </CharString>
        <CharString name="dv_b_la_ya">
          897 21 -21 31 33 8 52 -28 36 288 36 -36 140 401 callsubr
          35 150 151 -36 callsubr
          268 -48 callsubr
          hintmask 1101001111111000
          1240 -43 callsubr
          hintmask 1110001111111000
          -903 -321 rmoveto
          -13 2 -12 2 -12 vhcurveto
          -10 -30 -19 -26 -39 -2 -20 callgsubr
          1285 208 rmoveto
          -1500 -20 899 210 callgsubr
          -36 -11 -26 -18 -18 hvcurveto
          61 -33 -61 34 -74 hhcurveto
          -71 -41 -28 -40 -24 hvcurveto
          112 callgsubr
          -110 -81 -75 -123 -3 hvcurveto
          hintmask 1101010011111000
          -134 126 rlineto
          -74 callgsubr
          hintmask 1110100111111000
          -82 callgsubr
          58 55 25 50 25 hvcurveto
          hintmask 1101001111111000
          -67 22 49 -49 92 hhcurveto
          -98 callsubr
          -69 callgsubr
          3 141 55 36 21 -48 -101 5 vhcurveto
          -115 6 97 -66 126 -74 callsubr
        </CharString>
        <CharString name="dv_b_na">
          2 230 callgsubr
          345 50 callgsubr
          -604 -20 365 -301 hlineto
          hintmask 10010101
          -143 135 rlineto
          -74 callgsubr
          hintmask 01101101
          -92 callsubr
          -122 78 -60 88 -4 hvcurveto
          hintmask 10101011
          -76 -37 -53 -43 -64 -57 callsubr
          25 68 36 52 22 vhcurveto
          31 13 24 20 12 22 rrcurveto
          -71 callgsubr
        </CharString>
        <CharString name="dv_b_na.half">
          -285 72 13 callgsubr
          -113 161 hintmask 10011000
          384 560 rmoveto
          -404 -20 404 hlineto
          -26 -341 rmoveto
          -42 -14 -32 -33 -39 hhcurveto
          -14 callgsubr
          211 -170 rmoveto
          hintmask 10101000
          -204 192 rlineto
          -74 callgsubr
          hintmask 11011000
          -92 callsubr
          -122 78 -60 88 -4 hvcurveto
          hintmask 10010100
          -76 -37 -53 -43 -64 -57 callsubr
          25 70 37 52 22 vhcurveto
          43 19 35 35 16 44 18 -17 rcurveline
          endchar
        </CharString>
        <CharString name="dv_b_ra">
          63 callgsubr
          308 135 167 callgsubr
          150 -141 rlineto
          -50 vlineto
          239 399 104 callsubr
          hvcurveto
          5 hlineto
          -131 -90 11 -18 249 171 rlineto
          hintmask 10101110
          -135 139 -55 callsubr
        </CharString>
        <CharString name="dv_b_ra.half">
          -253 72 13 callgsubr
          hintmask 10011000
          308 135 167 callgsubr
          181 -170 rlineto
          hintmask 10101000
          -174 192 381 callgsubr
          hintmask 11011000
          -1 callgsubr
          296 203 1 1 3 2 rlineto
          1 vlineto
          10 11 rlineto
          -426 378 rmoveto
          -20 434 20 vlineto
          endchar
        </CharString>
        <CharString name="dv_b_ra.nukta">
          1 -169 138 31 136 callgsubr
          8 138 14 139 hintmask 1101011110000000
          262 -31 -107 callsubr
          46 166 rmoveto
          1 1 rlineto
          hintmask 1101011010000000
          -7 -11 -11 -5 -14 hhcurveto
          -14 callgsubr
          150 -141 rlineto
          -50 vlineto
          239 399 138 callgsubr
          -301 hlineto
          hintmask 1100101010000000
          -143 135 rlineto
          -74 callgsubr
          hintmask 1011011010000000
          198 callgsubr
          hintmask 1101011010000000
          -135 139 -55 callsubr
        </CharString>
        <CharString name="dv_b_ra.nukta.half">
          -268 -169 138 103 13 callgsubr
          58 138 hintmask 11001110
          312 -31 -107 callsubr
          -4 166 167 callgsubr
          181 -170 rlineto
          hintmask 11010110
          -174 192 381 callgsubr
          hintmask 11101110
          -1 callgsubr
          296 203 1 1 3 2 rlineto
          1 vlineto
          10 11 rlineto
          -426 378 rmoveto
          -20 434 20 vlineto
          endchar
        </CharString>
        <CharString name="dv_b_sa">
          458 318 callsubr
          72 379 callsubr
          35 150 165 18 151 136 callsubr
          hintmask 1011101111100000
          801 282 rmoveto
          -244 hlineto
          -85 callgsubr
          251 hlineto
          -456 -329 rmoveto
          -10 -46 -24 -40 -43 -1 rrcurveto
          -55 -28 57 92 -10 callgsubr
          846 208 rmoveto
          -1061 -20 416 382 callgsubr
          -8 0 -8 -1 -8 vhcurveto
          hintmask 1011010111100000
          -147 137 rlineto
          31 14 19 16 23 hhcurveto
          -9 callsubr
          hintmask 1011101111100000
          -82 callgsubr
          84 72 41 139 1 hvcurveto
          -49 81 -44 -207 210 225 callsubr
          hintmask 0111101111100000
          -262 -100 callgsubr
        </CharString>
        <CharString name="dv_b_sha">
          453 -4 31 -6 -21 72 52 111 426 callgsubr
          -140 -15 callsubr
          162 17 10 158 callgsubr
          90 140 hintmask 1011010111011000
          347 209 rmoveto
          -6 -40 -18 -43 -50 -2 -20 callgsubr
          839 208 rmoveto
          -1054 -20 hlineto
          hintmask 1011010111111000
          449 hlineto
          hintmask 1011100011111000
          -59 callgsubr
          hintmask 1011010111111000
          77 -84 -26 27 vvcurveto
          18 27 10 30 47 38 -37 -82 -111 -70 -57 -129 vhcurveto
          -41 hlineto
          hintmask 1011001011011000
          -128 120 rlineto
          31 14 19 16 23 hhcurveto
          -9 callsubr
          hintmask 1011010111011000
          -82 callgsubr
          74 71 42 93 8 hvcurveto
          13 -16 15 -27 22 -50 rrcurveto
          22 callsubr
          168 hlineto
          hintmask 0111010111011000
          -540 -39 callsubr
        </CharString>
        <CharString name="dv_b_ta">
          292 1 24 47 52 272 19 5 -15 callsubr
          152 175 callsubr
          hintmask 1110011110000000
          338 218 rmoveto
          -1 -6 0 -7 -7 vvcurveto
          -14 1 -13 1 -12 vhcurveto
          -15 -20 -22 -14 -29 -1 -20 callgsubr
          678 208 rmoveto
          -893 -20 655 352 callgsubr
          -126 -115 -33 -138 -21 hvcurveto
          hintmask 1100101110000000
          -138 130 rlineto
          -74 callgsubr
          hintmask 1101011110000000
          -82 callgsubr
          51 49 17 40 34 hvcurveto
          -95 23 75 -33 89 271 callgsubr
          hvcurveto
          hintmask 1110011110000000
          50 callsubr
        </CharString>
        <CharString name="dv_b_va">
          301 21 -21 72 13 callgsubr
          150 -32 callgsubr
          hintmask 11101111
          338 217 rmoveto
          3 -15 3 -14 6 -13 -16 -28 -25 -22 -36 -1 -20 callgsubr
          689 208 rmoveto
          -904 -20 665 133 callgsubr
          hvcurveto
          -9 vlineto
          hintmask 11010111
          -133 125 182 callgsubr
          60 57 24 56 33 hvcurveto
          -54 32 57 -26 61 100 callsubr
          -71 callgsubr
        </CharString>
        <CharString name="dv_b_ya">
          371 21 -21 72 52 -28 36 288 -15 callsubr
          140 -75 callgsubr
          hintmask 1011011011000000
          714 236 callgsubr
          hintmask 1011011101000000
          -93 callgsubr
          hintmask 1101011011000000
          -103 callgsubr
          -376 -322 rmoveto
          4 -12 6 -11 7 -10 -16 -33 -25 -26 -41 -2 -20 callgsubr
          759 208 rmoveto
          -974 -20 373 -42 callsubr
          hintmask 1010101101000000
          -45 callgsubr
          -12 1 -11 2 -10 vhcurveto
          -126 118 rlineto
          -74 callgsubr
          hintmask 1101011011000000
          -82 callgsubr
          65 61 28 67 32 hvcurveto
          hintmask 1011011011000000
          -46 41 66 -25 78 -74 callsubr
        </CharString>
        <CharString name="dv_ba">
          63 callgsubr
          345 211 rmoveto
          -18 vlineto
          -30 -2 -30 -39 -40 hhcurveto
          -62 -26 59 90 31 3 26 7 22 hvcurveto
          389 208 104 callsubr
          61 54 32 36 19 hvcurveto
          hintmask 10101110
          -71 callgsubr
        </CharString>
        <CharString name="dv_ba.half">
          -239 72 13 callgsubr
          hintmask 11011000
          360 197 rmoveto
          -15 -39 -27 -32 -45 -2 -20 callgsubr
          104 72 322 callsubr
          70 65 32 78 29 hvcurveto
          17 -15 14 15 rlineto
          hintmask 10101000
          -204 192 rlineto
          -74 callgsubr
          hintmask 11011000
          -308 149 rmoveto
          -20 438 20 vlineto
          endchar
        </CharString>
        <CharString name="dv_base">
          138 41 88 -74 90 -51 88 -50 88 -28 89 -32 88 -11 88 -40 88 -18 89 -50 89 -60 89 -74 88 hstemhm
          72 88 -75 90 -51 88 -45 88 -30 89 -29 88 -21 89 -30 88 -26 89 -56 88 -48 88 -78 88 hintmask 000000000100000100000000
          167 528 rmoveto
          -26 18 -19 26 26 18 19 26 25 -18 19 -26 -26 -18 -19 -25 vhcurveto
          hintmask 000000010000010000000000
          -82 -110 rmoveto
          -25 20 -19 26 24 20 19 25 25 -20 19 -24 -26 -20 -19 -25 vhcurveto
          hintmask 000001000000100000000000
          -13 -126 rmoveto
          -25 19 -18 25 26 18 18 435 callgsubr
          hintmask 000100000000001000000000
          52 -116 rmoveto
          -26 18 -18 26 25 19 18 26 25 -19 19 -25 -26 -18 -19 -25 vhcurveto
          hintmask 010000000000000010000000
          101 -75 rmoveto
          -26 19 -20 26 25 19 20 26 24 -19 20 -25 -26 -19 -20 -24 vhcurveto
          hintmask 100000000000000000100000
          127 -16 rmoveto
          -26 18 -18 26 26 19 18 26 26 -19 18 -26 -26 -18 -18 -26 vhcurveto
          hintmask 001000000000000000001000
          121 53 rmoveto
          -26 19 -18 25 25 20 18 26 25 -20 19 -25 -25 -19 -19 -25 vhcurveto
          hintmask 000010000000000000000010
          73 98 rmoveto
          -25 19 -19 26 24 19 19 25 26 -19 19 -24 -26 -19 -19 -26 vhcurveto
          hintmask 000000100000000000000001
          10 134 rmoveto
          -26 18 -18 26 25 19 18 26 26 -19 18 -25 -26 -18 -18 -26 vhcurveto
          hintmask 000000001000000000000100
          -50 118 rmoveto
          -25 19 -19 25 26 18 19 435 callgsubr
          hintmask 000000000010000000010000
          -95 68 rmoveto
          -24 19 -20 26 25 18 20 24 26 -18 19 -25 -26 -19 -19 -26 vhcurveto
          hintmask 000000000001000001000000
          -126 15 rmoveto
          -26 18 -18 26 26 18 18 26 26 -18 18 -26 -26 -18 -18 -26 vhcurveto
          endchar
        </CharString>
        <CharString name="dv_bh_la">
          534 31 33 41 -9 callgsubr
          95 20 74 298 callsubr
          86 -8 callgsubr
          hintmask 1101101101110100
          117 262 callsubr
          hintmask 1110101101110100
          -60 callsubr
          vhcurveto
          hintmask 1101101101110100
          -92 -3 -18 -57 -40 hhcurveto
          1000 380 rmoveto
          20 -768 -20 vlineto
          hintmask 1101101101101000
          446 -107 hlineto
          190 callsubr
          -82 -66 -42 -73 -30 hvcurveto
          -102 6 hlineto
          hintmask 1101110011110100
          -69 callsubr
          -7 vlineto
          hintmask 1110101101110100
          -26 callsubr
          hintmask 1101101101110100
          34 callgsubr
          hvcurveto
          97 hlineto
          -7 -22 -3 -24 -26 vvcurveto
          -109 45 -100 97 callgsubr
          -94 callsubr
          hvcurveto
          hintmask 1101101101101000
          31 callsubr
        </CharString>
        <CharString name="dv_bh_na">
          60 21 -21 169 callgsubr
          -121 161 63 140 hintmask 1101011010100000
          100 262 callsubr
          hintmask 1110011010100000
          -60 callsubr
          vhcurveto
          hintmask 1101011010100000
          52 callgsubr
          hintmask 1101100110100000
          -69 callsubr
          -7 vlineto
          hintmask 1110011010100000
          -26 callsubr
          hintmask 1101011010100000
          34 callgsubr
          hvcurveto
          104 -143 hlineto
          -90 -61 rlineto
          hintmask 1101011001100000
          -80 callsubr
          76 53 rlineto
          -146 -100 callgsubr
        </CharString>
        <CharString name="dv_bh_na.half">
          -204 169 callgsubr
          -121 161 hintmask 1010110100000000
          455 205 428 callsubr
          hintmask 1010110010000000
          -80 callsubr
          30 21 109 75 0 vvcurveto
          hintmask 1101010100000000
          -366 -29 -50 callgsubr
          200 177 rmoveto
          159 -58 67 -90 vhcurveto
          hintmask 1011001100000000
          127 callgsubr
          hintmask 1100110100000000
          -26 callsubr
          hintmask 1010110100000000
          125 callgsubr
        </CharString>
        <CharString name="dv_bh_r_ya">
          427 21 -21 96 36 -27 60 callsubr
          81 -75 callgsubr
          hintmask 1100101101011000
          770 236 callgsubr
          hintmask 1100101101101000
          -93 callgsubr
          hintmask 1011001101011000
          -103 callgsubr
          -670 -380 -50 callgsubr
          910 149 callsubr
          hvcurveto
          hintmask 1100110011011000
          247 callgsubr
          vhcurveto
          -167 6 hlineto
          -69 callsubr
          -7 vlineto
          hintmask 1011001101011000
          -26 callsubr
          hintmask 1010101101101000
          34 callgsubr
          hvcurveto
          83 115 callsubr
          -43 12 -37 22 -30 vhcurveto
          -287 -197 11 -18 rlineto
          hintmask 1100101101101000
          290 199 rlineto
          -44 41 65 -23 75 -74 callsubr
        </CharString>
        <CharString name="dv_bh_ra">
          0 callgsubr
          -141 hlineto
          -275 -189 11 -18 264 181 rlineto
          -145 -100 callgsubr
        </CharString>
        <CharString name="dv_bh_ra.half">
          -217 169 callgsubr
          hintmask 10101101
          128 -18 253 callgsubr
          -328 -28 rmoveto
          -26 -15 22 28 hvcurveto
          hintmask 11001101
          -60 callsubr
          vhcurveto
          hintmask 10101101
          417 callgsubr
          hintmask 10110011
          -69 callsubr
          -7 vlineto
          hintmask 11001101
          -26 callsubr
          hintmask 10101101
          125 callgsubr
        </CharString>
        <CharString name="dv_bh_ra.nukta">
          60 -171 138 54 -21 169 callgsubr
          -75 138 40 140 hintmask 1110101100110000
          294 -33 -107 callsubr
          hintmask 1111001101010000
          -194 193 -50 callgsubr
          538 400 rmoveto
          -303 -20 68 hlineto
          hintmask 1110110011010000
          391 callgsubr
          vlineto
          -69 callsubr
          -7 vlineto
          hintmask 1111001101010000
          -26 callsubr
          hintmask 1110101101010000
          199 callsubr
        </CharString>
        <CharString name="dv_bh_ra.nukta.half">
          -213 -171 138 138 60 callsubr
          -25 138 hintmask 1101011001000000
          344 -33 -107 callsubr
          -216 15 253 callgsubr
          hintmask 1110101010000000
          -328 -28 -50 callgsubr
          200 177 rmoveto
          159 -58 67 -90 vhcurveto
          hintmask 1101100110000000
          127 callgsubr
          hintmask 1110011010000000
          -26 callsubr
          hintmask 1101011010000000
          125 callgsubr
        </CharString>
        <CharString name="dv_bh_va">
          370 78 callsubr
          -40 298 callsubr
          87 -32 callgsubr
          hintmask 0011010011011100
          117 160 -50 callgsubr
          836 400 138 callgsubr
          hlineto
          hintmask 1000101001011100
          -347 vlineto
          -72 callgsubr
          hintmask 1000110100111100
          44 callgsubr
          -96 6 hlineto
          -69 callsubr
          -7 vlineto
          hintmask 0011010011011100
          -26 callsubr
          hintmask 0010110011011100
          34 callgsubr
          hvcurveto
          93 238 callsubr
          hintmask 0100110011011100
          -40 callsubr
          hintmask 1000110011011100
          -71 callgsubr
        </CharString>
        <CharString name="dv_bh_ya">
          455 21 -21 96 36 -27 395 callgsubr
          50 26 -24 19 107 139 92 -75 callgsubr
          hintmask 1100101101101000
          798 -104 callsubr
          hintmask 1010101101011000
          -103 callgsubr
          -681 228 callsubr
          hintmask 1101001101101000
          -60 callsubr
          vhcurveto
          hintmask 1010101101011000
          -92 -3 -18 -57 -40 hhcurveto
          921 149 callsubr
          247 callgsubr
          hvcurveto
          -178 6 hlineto
          hintmask 1100110011101000
          -69 callsubr
          -7 vlineto
          hintmask 1011001101101000
          -26 callsubr
          hintmask 1010101101101000
          34 callgsubr
          hvcurveto
          94 115 callsubr
          hintmask 1100101101101000
          -92 callgsubr
        </CharString>
        <CharString name="dv_bha">
          0 callgsubr
          -312 51 callgsubr
          endchar
        </CharString>
        <CharString name="dv_bha.half">
          -155 105 -9 callgsubr
          189 43 hstemhm
          50 34 callsubr
          hintmask 10111010
          117 262 callsubr
          hintmask 11011010
          -60 callsubr
          vhcurveto
          hintmask 10111010
          341 callgsubr
          159 -58 67 -90 vhcurveto
          hintmask 10110110
          127 callgsubr
          hintmask 11011010
          -26 callsubr
          hintmask 10111010
          34 callgsubr
          hvcurveto
          207 hlineto
          endchar
        </CharString>
        <CharString name="dv_c_ca">
          347 21 -21 69 216 callgsubr
          hstem
          36 145 186 145 178 140 vstem
          930 560 rmoveto
          -950 -20 710 291 callgsubr
          -258 -20 108 -4 hlineto
          -79 -22 -46 -65 -86 vvcurveto
          -32 6 -29 11 -24 vhcurveto
          -26 -25 -30 -20 -38 hhcurveto
          -74 -59 callsubr
          331 callsubr
          119 69 58 29 48 41 vhcurveto
          -49 31 55 -28 70 hhcurveto
          69 48 31 46 21 hvcurveto
          -146 -100 callgsubr
        </CharString>
        <CharString name="dv_c_ch_va">
          440 -159 48 180 53 -44 22 330 20 13 97 -20 20 hstemhm
          36 145 189 309 callgsubr
          hintmask 1011011001010000
          708 481 rmoveto
          hintmask 1011011001110000
          340 callsubr
          hintmask 1011101100101000
          220 callsubr
          hintmask 1011011010010000
          308 callgsubr
          hintmask 1011011001010000
          213 callgsubr
          -1033 -20 vlineto
          hintmask 1011011010010000
          464 345 callsubr
          hintmask 1101011100010000
          -65 -12 -52 -39 -66 vvcurveto
          -23 5 -20 9 -16 vhcurveto
          -26 -24 -30 -21 -39 hhcurveto
          -74 -59 callsubr
          331 callsubr
          119 vhcurveto
          hintmask 1101011001010000
          70 60 30 50 40 hvcurveto
          23 -26 35 -17 42 -11 rrcurveto
          -51 -17 -40 -37 -67 204 callsubr
          hintmask 1011011001001000
          70 37 41 61 85 vvcurveto
          hintmask 1011011001010000
          442 callgsubr
        </CharString>
        <CharString name="dv_c_cha">
          430 38 22 9 53 308 20 -17 286 callgsubr
          36 145 190 48 callsubr
          hintmask 1001011010000000
          709 466 94 callgsubr
          hintmask 1001011001000000
          -66 callsubr
          hintmask 1010110110000000
          2 callsubr
          67 hlineto
          304 hmoveto
          20 -1033 -20 481 vlineto
          -11 callgsubr
          hintmask 1110111001000000
          194 callsubr
          -16 2 -15 4 -14 vhcurveto
          -22 -23 -28 -17 -35 hhcurveto
          -74 -59 callsubr
          331 callsubr
          119 64 56 25 43 40 vhcurveto
          hintmask 1010111001000000
          -74 40 110 -25 124 hhcurveto
          184 104 88 156 hvcurveto
          hintmask 1010111010000000
          117 callsubr
        </CharString>
        <CharString name="dv_c_ma">
          406 21 -21 69 53 -17 -9 callgsubr
          99 20 90 20 hstemhm
          36 145 172 11 callgsubr
          hintmask 1100111111100000
          749 331 rmoveto
          -129 209 129 hlineto
          -343 -346 rmoveto
          -5 -7 -5 -6 -6 -6 rrcurveto
          hintmask 1011011111100000
          -7 8 -4 13 14 vvcurveto
          -60 callsubr
          vhcurveto
          -54 callsubr
          -6 -5 1 1 -5 hvcurveto
          5 7 4 7 4 7 rrcurveto
          568 377 rmoveto
          -1009 -20 501 -210 hlineto
          -71 -6 -57 -42 -72 vvcurveto
          hintmask 1100111111100000
          -23 6 -18 10 -15 vhcurveto
          -19 -22 -25 -13 -31 hhcurveto
          -74 -59 callsubr
          331 callsubr
          119 63 54 24 41 40 vhcurveto
          hintmask 1010111111100000
          -19 23 32 -10 34 hhcurveto
          -65 callgsubr
        </CharString>
        <CharString name="dv_c_na">
          25 0 207 callsubr
          45 145 -57 161 74 140 hintmask 10111010
          608 560 rmoveto
          -628 -20 388 -337 hlineto
          -40 -6 -26 -41 -50 54 callgsubr
          hintmask 01111010
          316 callgsubr
          8 8 0 1 7 vhcurveto
          hintmask 10110110
          -88 -63 -32 -50 -58 vvcurveto
          -55 30 -37 -16 callsubr
          -87 -13 40 vvcurveto
          21 14 18 60 43 vhcurveto
          45 31 19 13 14 17 9 20 rlinecurve
          -146 -100 callgsubr
        </CharString>
        <CharString name="dv_c_na.half">
          69 304 callgsubr
          45 145 -57 161 hintmask 11110000
          320 430 rmoveto
          20 -288 -20 138 -4 vlineto
          -79 -22 -46 -65 -86 vvcurveto
          316 callgsubr
          8 8 0 1 7 vhcurveto
          hintmask 11101000
          -88 -63 -32 -50 -58 vvcurveto
          -55 30 -37 -16 callsubr
          -87 -13 40 vvcurveto
          21 14 18 60 43 vhcurveto
          44 30 34 21 25 31 14 33 rlinecurve
          -13 8 rlineto
          hintmask 11110000
          -32 -19 -36 -34 -40 hhcurveto
          -64 -36 55 77 101 34 75 76 hvcurveto
          -320 130 rmoveto
          -20 628 20 vlineto
          endchar
        </CharString>
        <CharString name="dv_c_ra">
          16 0 207 callsubr
          36 145 178 140 hintmask 10111100
          599 560 rmoveto
          -619 -20 160 callsubr
          hintmask 01111100
          295 callsubr
          hintmask 10111100
          -136 -100 callgsubr
        </CharString>
        <CharString name="dv_c_ra.half">
          -250 69 216 callgsubr
          hstem
          36 145 56 callsubr
          endchar
        </CharString>
        <CharString name="dv_c_ra.nukta">
          16 391 callsubr
          23 207 callsubr
          36 145 28 138 12 140 hintmask 11011111
          278 -23 -107 callsubr
          321 583 rmoveto
          -619 -20 hlineto
          hintmask 01011101
          160 callsubr
          hintmask 00111101
          295 callsubr
          hintmask 01011101
          -136 -100 callgsubr
        </CharString>
        <CharString name="dv_c_ra.nukta.half">
          -251 -138 138 69 216 callgsubr
          hstem
          36 145 38 138 56 callsubr
          -122 -171 -107 callsubr
          endchar
        </CharString>
        <CharString name="dv_c_ya">
          388 21 -21 69 53 -26 36 298 20 90 20 hstemhm
          36 145 161 -75 callgsubr
          hintmask 1011110110000000
          731 236 callgsubr
          hintmask 1011111010000000
          -93 callgsubr
          hintmask 1011110110000000
          -88 callgsubr
          -991 -20 390 -42 callsubr
          hintmask 1101111010000000
          -45 callgsubr
          -49 16 -40 26 -31 vhcurveto
          -26 -24 -30 -21 -39 hhcurveto
          -74 -59 callsubr
          331 callsubr
          119 72 60 31 52 41 vhcurveto
          hintmask 1011111010000000
          -36 41 60 -20 69 -74 callsubr
        </CharString>
        <CharString name="dv_ca">
          25 0 207 callsubr
          45 145 178 140 hintmask 10111100
          608 560 rmoveto
          -628 -20 388 -337 hlineto
          -40 -6 -26 -41 -50 54 callgsubr
          hintmask 01111100
          316 callgsubr
          69 48 31 46 21 vhcurveto
          hintmask 10111100
          -146 -100 callgsubr
        </CharString>
        <CharString name="dv_ca.half">
          -239 69 216 callgsubr
          hstem
          36 145 vstem
          392 560 rmoveto
          -412 -20 412 hlineto
          14 -346 rmoveto
          -36 -28 -36 -36 -51 hhcurveto
          -74 -59 callsubr
          331 callsubr
          119 85 69 44 70 39 vhcurveto
          endchar
        </CharString>
        <CharString name="dv_candra.e">
          -563 637 93 hstem
          -320 14 313 126 callgsubr
          endchar
        </CharString>
        <CharString name="dv_ch_na">
          88 38 22 373 286 callgsubr
          34 145 -137 145 -61 161 85 140 -29 140 hintmask 11000010
          372 463 rmoveto
          -37 -13 -26 -32 -11 -35 19 -8 rcurveline
          hintmask 11010001
          36 13 24 22 36 hhcurveto
          64 29 -68 -83 -122 -41 -100 -117 -76 -70 43 100 56 21 52 60 4 hvcurveto
          hintmask 10101010
          2 callsubr
          67 hlineto
          300 hmoveto
          20 -692 -20 144 vlineto
          -11 callgsubr
          hintmask 10110010
          -73 -12 -33 -49 -61 vvcurveto
          -120 121 -43 159 -2 vhcurveto
          hintmask 10100110
          -109 -43 -79 -34 -80 -57 callsubr
          23 57 20 74 31 vhcurveto
          29 11 rlineto
          -212 140 257 vlineto
          hintmask 10100001
          70 43 41 69 85 vvcurveto
          hintmask 10100010
          90 -42 56 -69 25 vhcurveto
          87 vlineto
          endchar
        </CharString>
        <CharString name="dv_ch_na.half">
          79 -209 50 71 50 77 21 373 286 callgsubr
          48 145 -137 145 -79 160 104 140 -39 140 hintmask 1110101010000000
          274 335 rmoveto
          -52 9 -21 38 50 vvcurveto
          66 41 42 77 vhcurveto
          67 hlineto
          hintmask 1111010010000000
          -74 vlineto
          -43 -10 -29 -35 -12 -38 19 -8 rcurveline
          hintmask 1111010001000000
          -66 callsubr
          149 -270 rmoveto
          131 24 73 83 130 vvcurveto
          hintmask 1110101010000000
          86 -38 54 -63 27 vhcurveto
          91 164 20 427 callgsubr
          vlineto
          -11 callgsubr
          hintmask 1110110010000000
          194 callsubr
          -119 117 -43 143 -5 vhcurveto
          -27 -8 rlineto
          hintmask 1110100110000000
          -96 -26 -63 -42 -74 vvcurveto
          -50 27 -43 58 45 30 34 38 vhcurveto
          86 -87 -20 27 vvcurveto
          20 44 18 44 12 vhcurveto
          hintmask 1111010001000000
          67 19 73 15 0 vvcurveto
          hintmask 1110110010000000
          268 -187 -86 callsubr
        </CharString>
        <CharString name="dv_ch_r_ya">
          -35 callgsubr
          -119 115 -43 141 -5 vhcurveto
          -149 -106 -36 callgsubr
          -157 109 rlineto
          177 4 99 88 152 vvcurveto
          105 callgsubr
        </CharString>
        <CharString name="dv_ch_ra">
          107 39 21 11 callsubr
          -120 117 -42 144 -5 vhcurveto
          -144 -102 -36 callgsubr
          -152 106 rlineto
          167 8 94 87 148 vvcurveto
          hintmask 10110100
          117 callsubr
        </CharString>
        <CharString name="dv_ch_ra.nukta">
          107 -89 138 -11 22 373 286 callgsubr
          -14 138 -76 48 callsubr
          hintmask 1010100100000000
          55 49 -107 callsubr
          331 417 94 callgsubr
          hintmask 0110010010000000
          -66 callsubr
          hintmask 0101001100000000
          12 callgsubr
          hintmask 0101010010000000
          124 callsubr
          hintmask 0101010100000000
          117 callsubr
        </CharString>
        <CharString name="dv_ch_ra.nukta.half">
          107 -273 50 24 -21 68 50 13 138 -11 22 373 286 callgsubr
          -14 138 -76 48 callsubr
          hintmask 0111001100010000
          55 49 -107 callsubr
          hintmask 1010110010100000
          160 -205 -81 callsubr
          180 604 94 callgsubr
          hintmask 0110110010010000
          -66 callsubr
          hintmask 0110101001100000
          12 callgsubr
          hintmask 0110101010010000
          124 callsubr
          hintmask 0110101010100000
          117 callsubr
        </CharString>
        <CharString name="dv_ch_va">
          103 -159 48 189 22 363 97 -20 20 hstemhm
          43 309 callgsubr
          hintmask 1101000010000000
          381 481 rmoveto
          hintmask 1110100101000000
          340 callsubr
          220 callsubr
          hintmask 1101010010000000
          308 callgsubr
          hintmask 1101001010000000
          213 callgsubr
          vlineto
          hintmask 1101010010000000
          -706 -20 137 345 callsubr
          hintmask 1101100010000000
          -65 -12 -52 -39 -66 vvcurveto
          -73 52 -40 76 -20 vhcurveto
          hintmask 1101001010000000
          -51 -17 -40 -37 -67 204 callsubr
          hintmask 1101000001000000
          70 37 41 61 85 vvcurveto
          hintmask 1101000010000000
          442 callgsubr
        </CharString>
        <CharString name="dv_ch_ya">
          -35 callgsubr
          -128 134 -40 157 184 104 88 156 105 callgsubr
        </CharString>
        <CharString name="dv_cha">
          107 38 22 11 callsubr
          -128 134 -40 157 184 104 88 156 vhcurveto
          hintmask 10110100
          117 callsubr
        </CharString>
        <CharString name="dv_cha.half">
          107 38 22 373 36 71 20 hstemhm
          48 145 -137 145 286 140 hintmask 11110100
          690 540 rmoveto
          20 vlineto
          hintmask 11101100
          427 callgsubr
          hlineto
          -11 callgsubr
          hintmask 11110100
          177 callgsubr
          129 -85 58 -104 -82 -40 -40 -46 -14 vhcurveto
          19 -8 rlineto
          -66 callsubr
          hintmask 11101100
          2 callsubr
          endchar
        </CharString>
        <CharString name="dv_chandrabindu">
          -563 637 93 60 137 hstem
          -320 14 87 137 89 126 callgsubr
          -101 53 rmoveto
          38 -30 30 -38 -38 -31 -30 -38 -38 31 -31 38 38 30 31 38 vhcurveto
          endchar
        </CharString>
        <CharString name="dv_d_b_ra">
          -43 -196 119 88 -21 74 22 153 callgsubr
          54 145 -86 101 312 callsubr
          hintmask 1111011010000000
          259 65 rmoveto
          hintmask 1111010100100000
          -1 12 13 0 13 hhcurveto
          361 callgsubr
          401 callgsubr
          -20 -5 -17 -9 -15 vhcurveto
          -13 -15 rmoveto
          -13 -14 -19 -8 -23 hhcurveto
          -51 -32 36 45 23 7 20 15 14 hvcurveto
          hintmask 1111011010000000
          163 479 rmoveto
          141 20 -560 -20 279 164 callsubr
          -102 53 -60 88 -24 hvcurveto
          -193 -107 rlineto
          hintmask 1111010100100000
          13 -20 123 70 rlineto
          -15 -23 -10 -28 -34 vvcurveto
          -70 49 214 callgsubr
          hintmask 1110101001000000
          31 -24 34 -19 29 -13 -73 callgsubr
          hintmask 1110101010000000
          -17 callgsubr
        </CharString>
        <CharString name="dv_d_ba">
          -43 -196 119 88 -21 74 22 153 callgsubr
          54 145 -93 108 312 callsubr
          hintmask 1111011010000000
          259 65 rmoveto
          hintmask 1111010100100000
          -1 12 13 0 13 hhcurveto
          361 callgsubr
          401 callgsubr
          -20 -5 -17 -9 -15 vhcurveto
          -13 -15 rmoveto
          -13 -14 -19 -8 -23 hhcurveto
          -51 -32 36 45 23 7 20 15 14 hvcurveto
          hintmask 1111011010000000
          163 479 rmoveto
          141 20 -560 -20 279 164 callsubr
          -103 54 -59 88 -24 hvcurveto
          hintmask 1111010100100000
          -47 -20 -43 -41 -70 vvcurveto
          -81 56 214 callgsubr
          hintmask 1110101001000000
          31 -24 34 -19 29 -13 -73 callgsubr
          hintmask 1110101010000000
          -17 callgsubr
        </CharString>
        <CharString name="dv_d_bha">
          -8 -254 25 190 86 -36 -21 29 -21 66 22 153 callgsubr
          5 23 61 145 -102 20 87 94 -39 140 -83 150 hintmask 1001110110110000
          201 -229 rmoveto
          -36 -13 29 34 29 9 27 16 24 hvcurveto
          35 -28 27 -37 -34 vvcurveto
          -27 -15 -17 -23 vhcurveto
          hintmask 1010110111001000
          233 769 rmoveto
          141 20 -595 -20 314 164 callsubr
          -138 97 -60 146 hvcurveto
          1 hlineto
          -32 -15 -31 -18 -28 -20 rrcurveto
          hintmask 1100110111001000
          22 -31 -37 14 -43 251 callgsubr
          vhcurveto
          hintmask 1100110110110000
          28 34 -14 -20 31 hvcurveto
          -17 -28 -10 -31 -34 438 callsubr
          hintmask 1001110110110000
          39 -27 56 -46 41 vhcurveto
          hintmask 1010110110110000
          47 34 53 25 34 15 rrcurveto
          hintmask 1010101011000100
          39 -46 57 -34 45 -20 -73 callgsubr
          hintmask 1001101010101000
          -17 callgsubr
        </CharString>
        <CharString name="dv_d_da">
          -43 -3 23 263 23 114 25 95 20 hstemhm
          47 123 callsubr
          84 140 -102 150 hintmask 11111010
          418 540 rmoveto
          122 20 -560 -20 298 -99 hlineto
          0 -33 4 -42 vhcurveto
          hintmask 11110110
          -101 -43 -30 -50 -46 47 -26 47 -7 hvcurveto
          hintmask 11111001
          -69 -24 -37 -46 -57 vvcurveto
          -99 83 -63 158 24 31 4 5 16 vhcurveto
          39 -45 57 -34 45 -20 -34 callgsubr
          -32 11 -30 18 -25 vhcurveto
          -3 -12 -10 -2 -15 hhcurveto
          -71 -50 53 87 81 51 42 70 39 24 -10 -11 19 hvcurveto
          10 17 rlineto
          hintmask 11110101
          18 -25 -39 9 -50 hhcurveto
          -1 hlineto
          -59 -32 17 41 41 40 15 51 hvcurveto
          hintmask 11111010
          52 57 -14 -8 24 hvcurveto
          endchar
        </CharString>
        <CharString name="dv_d_dha">
          72 -180 122 -3 75 -3 -21 74 22 153 callgsubr
          14 109 46 145 -66 52 74 140 -83 150 -104 44 hintmask 1011101101001000
          412 64 rmoveto
          361 callgsubr
          3 -11 2 -10 -10 vvcurveto
          -63 -34 -36 -55 -61 -27 36 43 18 3 19 8 18 vhcurveto
          -8 30 34 -4 37 hhcurveto
          hintmask 0101101110100000
          102 476 rmoveto
          141 20 -675 -20 394 164 callsubr
          -94 45 -58 75 -27 hvcurveto
          -38 -12 -35 -31 -41 hhcurveto
          -55 -23 35 39 31 9 26 24 20 hvcurveto
          -7 19 rlineto
          -81 -12 -54 -41 -78 vvcurveto
          -73 56 -41 70 vhcurveto
          hintmask 0101101101100000
          51 34 19 29 27 hvcurveto
          -3 -13 -1 -14 -13 vvcurveto
          hintmask 1011101101001000
          -70 44 -57 91 94 44 77 76 22 -3 21 -7 20 vhcurveto
          hintmask 1011010110010000
          33 -28 39 -21 32 -15 -73 callgsubr
          hintmask 1011010110100000
          -17 callgsubr
        </CharString>
        <CharString name="dv_d_g_ra">
          22 -210 -21 110 28 104 -21 74 22 153 callgsubr
          21 58 40 145 -72 125 7 140 -86 126 -123 150 hintmask 1111101110100000
          464 540 rmoveto
          141 20 -625 -20 344 164 callsubr
          hvcurveto
          hintmask 1111101101010000
          -72 27 -51 46 -32 vhcurveto
          -33 220 callgsubr
          113 43 68 119 3 hvcurveto
          -1 14 15 -1 16 hhcurveto
          5 6 0 1 5 hvcurveto
          -155 vlineto
          -189 -141 14 -17 175 133 rlineto
          -129 126 249 vlineto
          hintmask 1111010110001000
          21 -13 21 -11 19 -9 -73 callgsubr
          hintmask 1111010100100000
          -17 callgsubr
        </CharString>
        <CharString name="dv_d_ga">
          -58 -141 28 133 -21 67 20 153 callgsubr
          17 58 -16 145 -16 135 -59 140 -93 150 hintmask 1111010101000000
          404 540 rmoveto
          121 20 -545 -20 284 164 callsubr
          hvcurveto
          hintmask 1111011010000000
          -99 50 -59 79 -25 vhcurveto
          -25 220 callgsubr
          117 52 73 126 hvcurveto
          8 vlineto
          10 1 10 1 11 3 rrcurveto
          hintmask 1110100100100000
          35 -41 50 -29 40 247 callsubr
          -85 callsubr
          68 109 92 37 74 97 hvcurveto
          hintmask 1110100101000000
          -17 callgsubr
        </CharString>
        <CharString name="dv_d_gha">
          87 -180 122 24 75 -30 -21 74 22 101 20 222 13 -13 131 -20 20 hstemhm
          14 109 61 145 -96 50 106 140 -83 150 -134 44 hintmask 1011110110100100
          427 64 rmoveto
          10 11 1 2 10 hvcurveto
          3 -9 1 -9 -8 vvcurveto
          -63 -34 -36 -55 -61 -29 34 43 21 6 24 12 20 vhcurveto
          -14 35 43 -6 48 hhcurveto
          hintmask 1101110111010000
          -304 51 rmoveto
          38 22 33 51 1 vhcurveto
          15 -43 30 -32 41 -20 rrcurveto
          -29 -16 -30 -22 -35 hhcurveto
          -55 -23 35 39 hvcurveto
          406 425 rmoveto
          141 20 -690 -20 409 164 callsubr
          -20 2 -18 4 -17 hvcurveto
          -12 hlineto
          -81 -83 -27 -97 -73 56 -44 70 hvcurveto
          hintmask 1101110110110000
          44 32 14 23 25 hvcurveto
          -5 -19 -3 -19 -18 vvcurveto
          hintmask 1011110110100100
          -70 44 -57 91 94 44 77 76 36 -9 34 -18 27 vhcurveto
          9 2 rlineto
          hintmask 1011101011001000
          39 -45 58 -34 45 -21 -73 callgsubr
          hintmask 1011101011010000
          -17 callgsubr
        </CharString>
        <CharString name="dv_d_ma">
          177 -67 55 132 19 45 35 245 18 58 20 hstemhm
          39 145 -35 26 67 140 -105 139 104 140 hintmask 1111101011000000
          520 139 rmoveto
          -104 96 hlineto
          -3 -1 rlineto
          -11 -28 -35 -4 -22 hhcurveto
          hintmask 1111110101000000
          -86 -58 32 87 75 41 51 86 22 24 -1 -6 25 hvcurveto
          83 138 vlineto
          hintmask 1111101011000000
          -300 -552 319 callgsubr
          540 572 rmoveto
          -780 -20 hlineto
          hintmask 1111110101000000
          262 -58 hlineto
          -121 -82 -48 -97 -109 85 -44 139 hvcurveto
          hintmask 1111101011000000
          14 -45 hlineto
          440 callsubr
          91 53 48 139 2 vhcurveto
          104 -182 140 602 100 hlineto
          endchar
        </CharString>
        <CharString name="dv_d_na">
          -72 24 22 363 -23 callsubr
          46 145 -64 161 -37 140 -93 150 hintmask 11011010
          391 176 callgsubr
          -531 -20 271 236 callsubr
          -136 94 -70 134 -2 hvcurveto
          hintmask 11010100
          -87 -37 -60 -34 -69 -57 callsubr
          23 55 19 73 31 vhcurveto
          hintmask 10101001
          35 -41 50 -29 40 247 callsubr
          -89 callsubr
          hintmask 10101010
          -17 callgsubr
        </CharString>
        <CharString name="dv_d_na.half">
          -74 -258 50 71 50 111 22 363 27 callgsubr
          -64 161 -37 140 -93 150 hintmask 1110101001000000
          474 -41 rmoveto
          -89 callsubr
          hintmask 1110101010000000
          22 30 -5 -7 14 hvcurveto
          hintmask 1111011010000000
          143 120 20 -531 -20 271 152 callsubr
          -136 94 -70 134 -2 hvcurveto
          hintmask 1111010100000000
          -87 -37 -60 -34 -69 -57 callsubr
          23 55 19 73 31 vhcurveto
          hintmask 1111011001000000
          35 -41 50 -29 40 -20 rrcurveto
          210 -132 -86 callsubr
        </CharString>
        <CharString name="dv_d_ra">
          95 callgsubr
          hvcurveto
          172 callsubr
          rlineto
          hintmask 10101010
          35 -40 50 -29 40 247 callsubr
          -89 callsubr
          hintmask 10101100
          -17 callgsubr
        </CharString>
        <CharString name="dv_d_ra.half">
          -76 -258 50 71 50 111 22 363 14 callgsubr
          -93 150 hintmask 1110101010000000
          474 -41 rmoveto
          -89 callsubr
          hintmask 1110101100000000
          22 30 -5 -7 14 hvcurveto
          hintmask 1111011100000000
          143 120 20 -529 275 callgsubr
          -138 97 -70 137 hvcurveto
          172 callsubr
          rlineto
          hintmask 1111011010000000
          35 -40 50 -29 40 -20 rrcurveto
          120 -132 -86 callsubr
        </CharString>
        <CharString name="dv_d_ra.nukta">
          7 -110 138 -4 22 363 -23 callsubr
          -1 138 -93 92 callgsubr
          hintmask 1010110100000000
          68 28 -107 callsubr
          321 512 rmoveto
          201 20 -610 -20 269 -118 hlineto
          hintmask 0110101010000000
          46 callsubr
          -138 97 -70 137 5 6 0 1 7 hvcurveto
          -140 -106 14 -17 169 128 35 -40 50 -29 40 -20 rlinecurve
          10 18 47 callgsubr
          hvcurveto
          hintmask 0101001100000000
          208 callgsubr
          endchar
        </CharString>
        <CharString name="dv_d_ra.nukta.half">
          1 -244 138 -126 50 71 50 85 22 363 27 callgsubr
          -69 138 -9 140 -93 150 hintmask 0111101101000000
          166 -62 rmoveto
          11 -18 162 110 rlineto
          hintmask 0111010100100000
          35 -40 50 -29 40 247 callsubr
          -89 callsubr
          hintmask 0111010101000000
          22 30 -5 -7 14 hvcurveto
          hintmask 0111101101000000
          143 195 20 -604 275 callgsubr
          -138 97 -70 137 hvcurveto
          4 5 0 6 hhcurveto
          hintmask 1001101010000000
          -104 -130 -107 callsubr
          hintmask 0111101101000000
          426 -59 -86 callsubr
        </CharString>
        <CharString name="dv_d_va">
          -43 -196 119 88 -21 74 22 153 callgsubr
          54 145 -93 108 312 callsubr
          hintmask 1111011000100000
          357 72 rmoveto
          401 callgsubr
          -49 -31 -39 -52 vhcurveto
          hintmask 1111010100100000
          334 callsubr
          hintmask 1111011000100000
          361 callgsubr
          hintmask 1111011010000000
          42 468 rmoveto
          141 20 -560 -20 279 164 callsubr
          -103 54 -59 88 -24 hvcurveto
          hintmask 1111010100100000
          -47 -20 -43 -41 -70 vvcurveto
          -81 56 214 callgsubr
          hintmask 1110101001000000
          31 -24 34 -19 29 -13 -73 callgsubr
          hintmask 1110101010000000
          -17 callgsubr
        </CharString>
        <CharString name="dv_d_vocalicR">
          -108 34 33 213 20 240 20 hstemhm
          39 56 callgsubr
          -20 135 -132 128 -32 150 hintmask 11100100
          307 540 rmoveto
          168 20 -495 -20 192 -63 hlineto
          hintmask 11101000
          -74 -46 -31 -60 hvcurveto
          hintmask 11100010
          -64 63 -20 60 -8 vhcurveto
          -4 vlineto
          hintmask 11110001
          -93 -2 -43 -55 -60 vvcurveto
          -97 93 -42 101 29 28 3 7 24 vhcurveto
          35 -40 50 -29 40 247 callsubr
          -25 callsubr
          -32 10 -28 16 -24 vhcurveto
          -2 hlineto
          -61 -50 37 75 63 38 38 65 hvcurveto
          hintmask 11100010
          16 20 hlineto
          hintmask 11101000
          -14 hlineto
          -59 -38 28 56 hvcurveto
          hintmask 11100100
          57 42 29 73 vhcurveto
          endchar
        </CharString>
        <CharString name="dv_d_y_bha">
          87 -271 25 185 86 -15 -21 65 43 178 20 245 20 hstemhm
          10 23 40 56 callgsubr
          -103 20 53 135 -101 94 106 140 hintmask 1011111001101000
          430 137 rmoveto
          -17 -8 -18 -9 -17 -10 rrcurveto
          -1 hlineto
          -3 -2 rlineto
          -7 -13 -21 -4 -16 hhcurveto
          hintmask 1011111100001000
          -59 -47 27 60 63 43 28 60 hvcurveto
          26 20 hlineto
          hintmask 1011111010001000
          -24 hlineto
          -59 -38 30 56 hvcurveto
          hintmask 1011111001101000
          60 41 29 64 vhcurveto
          70 99 vlineto
          hintmask 1011111001011000
          -239 -786 rmoveto
          -33 -15 29 34 28 10 28 17 28 hvcurveto
          35 -28 25 -38 -37 vvcurveto
          -27 -15 -17 -24 vhcurveto
          479 806 rmoveto
          -690 -20 hlineto
          hintmask 1011111001101000
          216 -63 hlineto
          hintmask 1011111010001000
          -77 -33 -39 -52 -67 63 -22 60 -8 hvcurveto
          -4 vlineto
          hintmask 1011111100001000
          -90 -2 -46 -45 -60 vvcurveto
          -91 90 -33 104 9 9 0 1 9 vhcurveto
          hintmask 1101111001011000
          -23 -17 -23 -18 -20 -20 rrcurveto
          16 -26 -30 9 -36 251 callgsubr
          28 29 -10 -17 26 vhcurveto
          -19 -32 -12 -32 -31 438 callsubr
          hintmask 1011111001011000
          43 -27 62 -51 39 vhcurveto
          55 50 70 46 59 31 rrcurveto
          -96 140 520 100 vlineto
          endchar
        </CharString>
        <CharString name="dv_d_y_ra">
          58 0 77 -39 39 288 callgsubr
          hintmask 10110011
          401 112 rmoveto
          -57 -25 rlineto
          -7 -16 -18 -3 -20 hhcurveto
          hintmask 10111001
          394 callgsubr
          hintmask 10110101
          -24 hlineto
          -59 -38 35 56 hvcurveto
          hintmask 10110011
          297 callgsubr
          hintmask 10110101
          398 callsubr
          hintmask 01111001
          -93 -2 -43 -50 -60 vvcurveto
          -96 96 -28 92 -1 vhcurveto
          hintmask 10111001
          -188 -82 11 -20 346 152 rlineto
          -88 -100 callgsubr
        </CharString>
        <CharString name="dv_d_ya">
          58 21 -21 34 43 288 callgsubr
          hintmask 11110011
          401 159 rmoveto
          -54 -9 -46 -28 -56 hhcurveto
          hintmask 11111001
          394 callgsubr
          hintmask 11110101
          -24 hlineto
          -59 -38 35 56 hvcurveto
          hintmask 11110011
          297 callgsubr
          hintmask 11110101
          398 callsubr
          hintmask 11111001
          -93 -2 -43 -50 -60 vvcurveto
          -97 90 -32 94 81 64 27 48 28 vhcurveto
          -109 -100 callgsubr
        </CharString>
        <CharString name="dv_da">
          95 callgsubr
          16 23 2 5 22 hvcurveto
          hintmask 10101010
          35 -41 50 -29 40 247 callsubr
          -89 callsubr
          hintmask 10101100
          -17 callgsubr
        </CharString>
        <CharString name="dv_da.half">
          -74 -215 50 71 50 68 22 363 14 callgsubr
          -93 150 hintmask 1111011100000000
          115 -98 -81 callsubr
          -128 640 rmoveto
          -20 271 -118 vlineto
          307 callgsubr
          hintmask 1110101010000000
          35 -41 50 -29 40 247 callsubr
          -89 callsubr
          hintmask 1110101100000000
          22 30 -5 -7 14 hvcurveto
          hintmask 1111011100000000
          143 120 20 vlineto
          endchar
        </CharString>
        <CharString name="dv_danda">
          21 -21 560 -20 hstem
          80 140 vstem
          80 hmoveto
          140 560 -140 hlineto
          endchar
        </CharString>
        <CharString name="dv_dd_dda">
          -112 -174 20 633 19 42 20 hstemhm
          55 114 -110 114 -109 101 -97 101 54 130 -65 111 -107 111 hintmask 1110010100000000
          353 540 rmoveto
          118 20 -491 -20 243 -42 hlineto
          -102 -57 -40 -51 hvcurveto
          hintmask 1110010010000000
          397 callgsubr
          hintmask 1111000001000000
          309 callsubr
          -41 38 -31 50 -14 vhcurveto
          hintmask 1110001001000000
          -49 -15 -26 -30 -34 397 callgsubr
          hintmask 1110100001000000
          309 callsubr
          -57 73 -37 78 110 83 45 79 vhcurveto
          hintmask 1110001001000000
          419 callsubr
          21 26 8 31 3 vhcurveto
          hintmask 1110010010000000
          100 5 73 44 74 419 callsubr
          25 36 7 46 vhcurveto
          hintmask 1110010100000000
          44 46 -7 -4 16 hvcurveto
          endchar
        </CharString>
        <CharString name="dv_dd_ddha">
          -94 -116 21 123 58 393 19 42 20 hstemhm
          38 140 -124 114 -100 111 53 130 -65 116 -91 118 hintmask 1011100100000000
          362 540 rmoveto
          127 20 -509 -20 252 -42 hlineto
          hintmask 1111001010000000
          -102 -62 -40 -51 hvcurveto
          -113 229 28 -92 vvcurveto
          -37 -30 -26 -59 vhcurveto
          hintmask 1111010100000000
          -23 -54 7 23 hvcurveto
          18 37 1 33 vvcurveto
          27 -23 21 -33 -38 -20 -24 -32 -43 43 -31 57 -13 vhcurveto
          hintmask 1111100001000000
          -64 -25 -52 -42 -65 vvcurveto
          -100 103 -38 117 101 81 37 76 60 -48 29 -62 -45 -46 -21 -52 -16 vhcurveto
          18 -8 rlineto
          14 6 11 9 18 hhcurveto
          31 15 -22 -28 -45 -24 -28 -40 -47 -33 39 69 82 43 46 58 12 hvcurveto
          hintmask 1011001010000000
          78 16 56 44 63 419 callsubr
          25 31 7 46 vhcurveto
          hintmask 1011100100000000
          44 46 -7 -4 16 hvcurveto
          endchar
        </CharString>
        <CharString name="dv_dd_ga">
          -16 -182 27 172 421 callgsubr
          11 56 52 93 -36 22 107 140 -93 130 hintmask 1111110100000000
          445 540 rmoveto
          122 20 -587 -20 325 -67 156 callsubr
          hintmask 1111110010000000
          -56 callsubr
          hintmask 1111101010000000
          -17 -21 2 6 -16 hvcurveto
          -8 2 rlineto
          -15 7 -11 9 14 -62 callsubr
          -41 27 -32 41 -20 vhcurveto
          -34 203 callsubr
          35 70 122 hvcurveto
          7 vlineto
          22 20 3 4 19 hvcurveto
          -229 130 315 vlineto
          11 20 6 23 25 vvcurveto
          hintmask 1111110100000000
          -46 callsubr
          58 63 -17 -13 27 vhcurveto
          endchar
        </CharString>
        <CharString name="dv_dd_na">
          -91 17 421 callgsubr
          38 396 callgsubr
          -119 140 hintmask 11100110
          270 callsubr
          hintmask 11100101
          -56 callsubr
          hintmask 11110001
          -28 callsubr
          -68 76 -43 86 -5 vhcurveto
          hintmask 11101001
          -92 -38 -63 -34 -71 -57 callsubr
          22 54 20 71 29 vhcurveto
          -228 140 296 vlineto
          21 25 12 31 35 vvcurveto
          hintmask 11100110
          -46 callsubr
          58 63 -17 -13 27 vhcurveto
          endchar
        </CharString>
        <CharString name="dv_dd_na.half">
          -91 -194 50 71 50 40 421 callgsubr
          38 133 -132 161 -151 93 93 140 -52 106 hintmask 1111100110000000
          270 callsubr
          hintmask 1111100101000000
          -56 callsubr
          hintmask 1111110001000000
          -28 callsubr
          -68 76 -43 86 -5 vhcurveto
          hintmask 1111101001000000
          -90 -31 -71 -37 -72 -57 callsubr
          18 66 25 58 19 vhcurveto
          15 5 14 4 13 4 rrcurveto
          85 21 53 57 74 vvcurveto
          hintmask 1111100101000000
          -46 callsubr
          vhcurveto
          hintmask 1111100110000000
          86 callsubr
          207 -550 -86 callsubr
        </CharString>
        <CharString name="dv_dd_ra">
          -106 -3 21 415 408 callgsubr
          31 6 callsubr
          hintmask 11101100
          368 363 callgsubr
          -497 -20 121 callsubr
          hintmask 11101010
          -56 callsubr
          hintmask 11110010
          -28 callsubr
          -70 81 -44 90 -2 vhcurveto
          -133 -94 -36 callgsubr
          -150 104 rlineto
          92 19 58 59 77 vvcurveto
          hintmask 11101010
          -46 callsubr
          vhcurveto
          hintmask 11101100
          229 callsubr
        </CharString>
        <CharString name="dv_dd_ra.half">
          -106 -302 50 71 50 128 21 415 408 callgsubr
          31 6 callsubr
          hintmask 1111101100000000
          409 -120 rmoveto
          13 19 -150 104 rlineto
          hintmask 1111101010000000
          92 19 58 59 77 -46 callsubr
          vhcurveto
          hintmask 1111101100000000
          228 callgsubr
          110 20 -498 -20 248 -87 vlineto
          87 callgsubr
          hintmask 1111101010000000
          -56 callsubr
          hintmask 1111110100000000
          -28 callsubr
          -70 81 -44 90 -2 vhcurveto
          -133 -94 400 callsubr
          rlineto
          256 -230 -86 callsubr
        </CharString>
        <CharString name="dv_dd_ra.nukta">
          -36 -94 138 -46 20 415 408 callgsubr
          -19 138 -18 6 callsubr
          hintmask 1011100100000000
          50 44 -107 callsubr
          388 496 rmoveto
          109 20 -567 -20 318 -87 hlineto
          hintmask 0111001010000000
          87 callgsubr
          -56 callsubr
          hintmask 0111010010000000
          -28 callsubr
          -66 71 -42 82 -7 vhcurveto
          -150 -106 -36 callgsubr
          -157 110 rlineto
          116 7 76 64 89 vvcurveto
          hintmask 0111001010000000
          -46 callsubr
          vhcurveto
          hintmask 0111001100000000
          229 callsubr
        </CharString>
        <CharString name="dv_dd_ra.nukta.half">
          -1 -290 50 71 50 26 138 -48 21 -20 20 415 408 callgsubr
          5 138 -7 6 callsubr
          hintmask 1110011100100000
          74 45 -107 callsubr
          417 -179 rmoveto
          13 19 rlineto
          hintmask 1100111001010000
          -162 113 rlineto
          112 9 73 64 87 -46 callsubr
          vhcurveto
          hintmask 1101011001100000
          409 callsubr
          -602 -20 353 -87 vlineto
          87 callgsubr
          hintmask 1101011001010000
          -56 callsubr
          hintmask 1101011010100000
          -28 callsubr
          -70 80 -43 88 -3 vhcurveto
          440 callgsubr
          rlineto
          263 -204 -86 callsubr
        </CharString>
        <CharString name="dv_dd_va">
          -85 -88 45 168 19 331 19 46 20 hstemhm
          26 131 -108 121 -116 117 -53 13 96 138 -74 120 hintmask 1111100001000000
          291 -1 rmoveto
          -26 -12 -21 -16 -31 hhcurveto
          -37 -33 25 50 51 29 36 51 6 hvcurveto
          19 18 3 3 17 hvcurveto
          hintmask 1111001010000000
          74 409 rmoveto
          130 20 -515 -20 247 -46 hlineto
          -108 -65 -42 -54 hvcurveto
          hintmask 1111001001000000
          -119 252 29 -97 vvcurveto
          -39 -32 -28 -62 vhcurveto
          hintmask 1111000101000000
          -24 -57 8 24 hvcurveto
          hintmask 1111010001000000
          19 39 1 35 vvcurveto
          29 -25 22 -35 -40 -21 -26 -34 vhcurveto
          hintmask 1111000101000000
          -36 28 -27 41 -17 vhcurveto
          hintmask 1111100001000000
          -50 -13 -42 -35 -63 vvcurveto
          -72 51 -47 90 55 44 15 31 25 vhcurveto
          -68 120 311 vlineto
          12 17 6 20 22 vvcurveto
          hintmask 1111001010000000
          137 -258 -21 65 vvcurveto
          26 33 8 49 46 49 -7 -4 17 vhcurveto
          endchar
        </CharString>
        <CharString name="dv_dd_ya">
          487 -3 21 3 -21 39 35 359 408 callgsubr
          31 6 callsubr
          187 328 callgsubr
          hintmask 1011101101100000
          830 4 callsubr
          -61 54 -123 vhcurveto
          -210 87 462 305 callsubr
          -1090 -20 121 callsubr
          hintmask 1001101011100000
          -56 callsubr
          hintmask 1001110011100000
          -36 -52 10 30 hvcurveto
          -51 callsubr
          hintmask 0111101011100000
          -46 callsubr
          vhcurveto
          276 hlineto
          80 33 -54 268 callgsubr
          -84 -100 callsubr
          vlineto
          endchar
        </CharString>
        <CharString name="dv_dda">
          -106 -3 21 415 408 callgsubr
          31 6 callsubr
          hintmask 11101100
          -20 540 rmoveto
          121 callsubr
          hintmask 11101010
          -56 callsubr
          hintmask 11110010
          -36 -52 10 30 hvcurveto
          -51 callsubr
          hintmask 11101010
          -46 callsubr
          vhcurveto
          hintmask 11101100
          409 callsubr
          -497 vlineto
          endchar
        </CharString>
        <CharString name="dv_dda.half">
          -106 -226 50 71 50 52 21 415 408 callgsubr
          31 6 callsubr
          hintmask 1111101100000000
          74 -109 -81 callsubr
          -85 631 rmoveto
          121 callsubr
          hintmask 1111101010000000
          -56 callsubr
          hintmask 1111110010000000
          -36 -52 10 30 hvcurveto
          -51 callsubr
          hintmask 1111101010000000
          -46 callsubr
          vhcurveto
          hintmask 1111101100000000
          409 callsubr
          -497 vlineto
          endchar
        </CharString>
        <CharString name="dv_dda.nukta">
          -106 -168 138 27 21 415 408 callgsubr
          31 133 -122 93 7 138 -52 140 -52 106 hintmask 0111010100000000
          -20 540 rmoveto
          121 callsubr
          hintmask 0111010010000000
          -56 callsubr
          hintmask 0111100010000000
          -36 -52 10 30 hvcurveto
          -51 callsubr
          hintmask 0111010010000000
          -46 callsubr
          vhcurveto
          hintmask 0111010100000000
          409 callsubr
          -497 vlineto
          hintmask 1111001000000000
          300 -659 69 callsubr
          endchar
        </CharString>
        <CharString name="dv_ddh_ddha">
          -12 -145 20 165 43 253 43 70 13 78 20 hstemhm
          59 316 callsubr
          129 hintmask 11111110
          404 540 rmoveto
          167 20 -591 -20 284 -78 338 callsubr
          -50 -99 -89 52 -47 85 -17 hvcurveto
          -82 -17 -55 -47 -79 vvcurveto
          -120 94 -42 140 vhcurveto
          hintmask 11111101
          109 97 35 91 62 -43 40 175 callgsubr
          hvcurveto
          272 callgsubr
          75 31 50 80 7 hvcurveto
          100 5 84 36 85 vvcurveto
          62 -43 40 175 callgsubr
          vhcurveto
          272 callgsubr
          82 37 52 97 hvcurveto
          hintmask 11111110
          -17 callgsubr
        </CharString>
        <CharString name="dv_ddh_ra">
          -41 25 19 118 callsubr
          -123 85 -77 128 -7 hvcurveto
          -151 -107 -36 callgsubr
          -159 111 rlineto
          hintmask 11010101
          100 5 85 39 100 vvcurveto
          68 -44 55 175 callgsubr
          vhcurveto
          -30 callgsubr
          hintmask 11010110
          -17 callgsubr
        </CharString>
        <CharString name="dv_ddh_ra.half">
          -41 -288 50 71 50 142 19 205 43 117 14 callgsubr
          -34 130 hintmask 1111101110000000
          446 -105 rmoveto
          13 19 -159 111 rlineto
          hintmask 1111010101000000
          100 5 85 39 100 vvcurveto
          68 -44 55 175 callgsubr
          vhcurveto
          -30 callgsubr
          hintmask 1111010110000000
          22 30 -5 -7 14 hvcurveto
          hintmask 1111101110000000
          143 153 20 -562 275 callgsubr
          -123 85 -77 128 -7 hvcurveto
          -151 -107 400 callsubr
          rlineto
          261 -231 -86 callsubr
        </CharString>
        <CharString name="dv_ddh_ra.nukta">
          -1 -71 336 callsubr
          9 138 -63 263 callsubr
          hintmask 1011011010000000
          78 67 -107 callsubr
          351 473 rmoveto
          153 20 -602 -20 309 -118 hlineto
          hintmask 0111010101000000
          46 callsubr
          -123 84 -76 127 -8 hvcurveto
          -151 -107 -36 callgsubr
          -158 110 rlineto
          100 5 86 40 100 vvcurveto
          68 -44 55 175 callgsubr
          vhcurveto
          15 -7 rlineto
          17 7 14 13 17 hhcurveto
          36 13 -40 -41 -78 -23 -46 -53 -63 -27 84 105 hvcurveto
          hintmask 0110100110000000
          208 callgsubr
          endchar
        </CharString>
        <CharString name="dv_ddh_ra.nukta.half">
          1 -266 50 71 50 24 336 callsubr
          11 138 -63 263 callsubr
          hintmask 1110110110100000
          80 67 -107 callsubr
          hintmask 1101110101100000
          126 -216 -81 callsubr
          387 691 443 callsubr
          311 236 callsubr
          -125 86 -77 131 -6 hvcurveto
          -2 vlineto
          -157 -111 -36 callgsubr
          -165 115 rlineto
          2 vlineto
          hintmask 1101101001010000
          103 3 90 40 102 vvcurveto
          68 -44 55 175 callgsubr
          vhcurveto
          -30 callgsubr
          hintmask 1101101001100000
          22 30 -5 -7 14 hvcurveto
          hintmask 1101110101100000
          143 153 vlineto
          endchar
        </CharString>
        <CharString name="dv_ddh_ya">
          537 21 -21 24 20 -5 35 175 43 137 20 91 20 hstemhm
          44 263 callsubr
          174 328 callgsubr
          hintmask 0011111101100000
          880 4 callsubr
          -61 50 -123 vhcurveto
          -239 91 491 305 callsubr
          -1140 -20 269 305 callgsubr
          -85 -115 hvcurveto
          hintmask 0101111011100000
          -130 94 -88 140 109 98 38 107 68 -44 55 175 callgsubr
          vhcurveto
          15 -7 rlineto
          17 7 14 13 17 hhcurveto
          36 13 -40 -41 -78 -23 -46 -53 -63 -27 94 105 92 37 94 97 hvcurveto
          223 hlineto
          80 33 -43 -65 -64 -41 -39 -71 -3 hvcurveto
          -2 hlineto
          hintmask 1011111101100000
          41 callsubr
        </CharString>
        <CharString name="dv_ddha">
          -41 24 20 118 callsubr
          406 callsubr
          hvcurveto
          hintmask 11010101
          109 98 38 107 68 -44 55 175 callgsubr
          hvcurveto
          -30 callgsubr
          hintmask 11010110
          -17 callgsubr
        </CharString>
        <CharString name="dv_ddha.half">
          -41 -208 50 71 50 61 20 205 43 117 14 callgsubr
          -34 130 hintmask 1111101110000000
          132 -91 -81 callsubr
          -143 633 rmoveto
          275 callgsubr
          406 callsubr
          hvcurveto
          hintmask 1111010101000000
          109 98 38 107 68 -44 55 175 callgsubr
          hvcurveto
          -30 callgsubr
          hintmask 1111010110000000
          22 30 -5 -7 14 hvcurveto
          hintmask 1111101110000000
          143 153 20 vlineto
          endchar
        </CharString>
        <CharString name="dv_ddha.nukta">
          -41 -176 138 62 20 205 43 117 27 callgsubr
          14 138 -92 140 -34 130 hintmask 1111011100000000
          272 -38 -107 callsubr
          hintmask 1111011010000000
          117 578 rmoveto
          153 20 -562 -20 269 236 callsubr
          406 callsubr
          hvcurveto
          hintmask 1110101001000000
          109 98 38 107 68 -44 55 175 callgsubr
          hvcurveto
          -30 callgsubr
          hintmask 1110101010000000
          -17 callgsubr
        </CharString>
        <CharString name="dv_dh_ma">
          446 21 -21 39 48 18 -9 callgsubr
          -16 274 callgsubr
          206 11 callgsubr
          hintmask 1100011011110000
          321 315 rmoveto
          20 -27 vlineto
          -60 -34 43 54 60 18 48 77 hvcurveto
          20 -316 -20 152 vlineto
          -42 callgsubr
          hintmask 1100011101110000
          121 callgsubr
          83 79 33 50 43 vhcurveto
          -13 14 rlineto
          -36 -36 -48 -13 -34 -27 callgsubr
          hintmask 1110101011110000
          507 16 -58 callgsubr
          hintmask 1101001011110000
          -60 callsubr
          vhcurveto
          hintmask 1110101011110000
          130 callsubr
          -684 -20 176 hlineto
          hintmask 1111001011110000
          -210 vlineto
          -72 callsubr
          hintmask 1110101011110000
          -65 callgsubr
        </CharString>
        <CharString name="dv_dh_n_ya">
          463 360 callsubr
          183 274 callgsubr
          -33 161 81 -75 callgsubr
          hintmask 1011100010100000
          798 -104 callsubr
          hintmask 1011100001100000
          -88 callgsubr
          -680 -20 79 -42 callsubr
          hintmask 1111110010100000
          -45 callgsubr
          -45 13 -38 24 -31 vhcurveto
          -36 -33 -57 -52 -51 2 callgsubr
          hintmask 1011101010100000
          -41 callsubr
          -315 -20 151 vlineto
          -42 callgsubr
          hintmask 1111110010100000
          335 callsubr
          hintmask 1011100110100000
          -73 -52 26 callgsubr
          6 4 11 7 9 7 30 19 30 28 35 39 rrcurveto
          -42 41 64 -23 74 -74 callsubr
        </CharString>
        <CharString name="dv_dh_na">
          61 0 87 -48 48 228 274 callgsubr
          -33 161 76 140 hintmask 10111001
          358 560 rmoveto
          -20 46 -371 vlineto
          -54 -9 -46 -28 -44 2 callgsubr
          hintmask 10110101
          -41 callsubr
          -315 -20 151 vlineto
          -42 callgsubr
          hintmask 01111001
          -82 -15 -38 73 callsubr
          20 vlineto
          endchar
        </CharString>
        <CharString name="dv_dh_na.half">
          -195 39 48 228 274 callgsubr
          -33 161 hintmask 11110000
          321 315 rmoveto
          20 vlineto
          hintmask 11101000
          -41 callsubr
          -315 -20 151 vlineto
          -42 callgsubr
          hintmask 11110000
          335 callsubr
          hintmask 11100100
          -73 -52 26 callgsubr
          6 4 11 7 9 7 37 23 37 36 44 55 -14 12 rcurveline
          -28 -23 -74 -86 -66 hhcurveto
          hintmask 11110000
          -67 -46 41 71 63 32 53 71 hvcurveto
          63 245 rmoveto
          -20 286 20 vlineto
          endchar
        </CharString>
        <CharString name="dv_dh_ra">
          60 0 323 callgsubr
          202 140 hintmask 10111010
          357 560 rmoveto
          -20 46 -412 vlineto
          69 callgsubr
          28 20 hlineto
          hintmask 10110110
          3 callsubr
          hintmask 01111010
          -12 callgsubr
          269 161 rlineto
          hintmask 10111010
          -104 125 callsubr
        </CharString>
        <CharString name="dv_dh_ra.half">
          -187 39 38 callsubr
          46 145 -130 444 callsubr
          86 hintmask 11110100
          183 callgsubr
          hintmask 11101100
          3 callsubr
          hintmask 11110100
          -12 callgsubr
          333 199 rlineto
          endchar
        </CharString>
        <CharString name="dv_dh_ra.nukta">
          60 391 callsubr
          23 323 callgsubr
          52 138 12 140 hintmask 1101100110000000
          322 -23 -107 callsubr
          hintmask 0101110010000000
          35 583 rmoveto
          -20 46 -412 vlineto
          69 callgsubr
          28 20 hlineto
          hintmask 0101101010000000
          3 callsubr
          hintmask 0011110010000000
          -12 callgsubr
          269 161 rlineto
          hintmask 0101100010000000
          -104 125 callsubr
        </CharString>
        <CharString name="dv_dh_ra.nukta.half">
          -188 391 callsubr
          62 38 callsubr
          46 145 -130 140 98 138 -80 86 hintmask 01111001
          183 callgsubr
          hintmask 01110101
          3 callsubr
          hintmask 11111010
          -12 callgsubr
          333 199 rlineto
          -99 -165 -107 callsubr
          endchar
        </CharString>
        <CharString name="dv_dh_va">
          379 0 124 -85 48 -15 52 191 20 85 -49 callsubr
          47 56 callgsubr
          213 -32 callgsubr
          hintmask 1001101101100000
          962 76 callsubr
          hintmask 1001010101100000
          -76 callgsubr
          vhcurveto
          hintmask 0101101101100000
          -92 callsubr
          -49 13 -39 20 -29 hvcurveto
          -28 -31 -41 -26 -61 192 callsubr
          hintmask 1001101011100000
          -41 callsubr
          -315 -20 151 vlineto
          -42 callgsubr
          hintmask 0101101101100000
          255 callsubr
          104 71 43 42 47 vhcurveto
          hintmask 0011101101100000
          -35 33 47 -17 49 100 callsubr
          hintmask 1001101101100000
          -71 callgsubr
        </CharString>
        <CharString name="dv_dh_ya">
          478 360 callsubr
          183 274 callgsubr
          232 -75 callgsubr
          hintmask 1011100101000000
          821 -104 callsubr
          hintmask 1011100011000000
          -88 callgsubr
          -703 -20 102 -42 callsubr
          hintmask 1111110101000000
          -45 callgsubr
          -49 16 -41 27 -31 vhcurveto
          -36 -36 -45 -45 -81 192 callsubr
          hintmask 1011101101000000
          3 callsubr
          hintmask 1111110101000000
          255 callsubr
          128 79 65 50 43 vhcurveto
          hintmask 1011100101000000
          -38 42 61 -20 70 -74 callsubr
        </CharString>
        <CharString name="dv_dha">
          61 21 -21 39 48 228 274 callgsubr
          204 140 hintmask 11111010
          358 560 rmoveto
          -20 46 -371 vlineto
          -54 -9 -46 -28 -44 2 callgsubr
          hintmask 11110110
          -41 callsubr
          -315 -20 151 vlineto
          -42 callgsubr
          hintmask 11111010
          104 callgsubr
        </CharString>
        <CharString name="dv_dha.half">
          -193 39 48 228 274 callgsubr
          158 116 hintmask 11110100
          321 315 rmoveto
          20 vlineto
          hintmask 11101100
          -41 callsubr
          -315 -20 151 vlineto
          -42 callgsubr
          hintmask 11110100
          121 callgsubr
          109 80 43 54 44 vhcurveto
          -13 14 rlineto
          -36 -36 -49 -27 -56 hhcurveto
          -71 -47 41 71 63 32 53 71 hvcurveto
          63 245 rmoveto
          -20 116 20 vlineto
          endchar
        </CharString>
        <CharString name="dv_doubledanda">
          36 21 -21 560 -20 hstem
          130 140 109 140 vstem
          519 hmoveto
          560 -140 -560 vlineto
          -109 hmoveto
          560 -140 -560 vlineto
          endchar
        </CharString>
        <CharString name="dv_e">
          2 314 callsubr
          326 callsubr
          hintmask 11111000
          585 560 rmoveto
          -604 109 callsubr
          108 callsubr
          hintmask 11110100
          174 callgsubr
          hintmask 11111000
          18 callsubr
        </CharString>
        <CharString name="dv_e.chandra">
          1 314 callsubr
          71 89 326 callsubr
          -52 13 hintmask 11111001
          456 803 rmoveto
          -45 -10 -51 -38 -96 hhcurveto
          -89 -58 34 49 -10 hvcurveto
          -13 -3 rlineto
          -107 -4 71 -62 103 hhcurveto
          103 71 61 108 -4 hvcurveto
          116 -240 rmoveto
          -604 109 callsubr
          hintmask 11111100
          108 callsubr
          hintmask 11111010
          174 callgsubr
          hintmask 11111100
          18 callsubr
        </CharString>
        <CharString name="dv_e.short">
          1 314 callsubr
          77 405 callgsubr
          17 36 22 145 144 145 -100 25 -23 97 hintmask 1111010101000000
          585 560 rmoveto
          -168 hlineto
          9 12 8 19 28 vvcurveto
          hintmask 1110110101000000
          430 callsubr
          hintmask 1111011101000000
          -17 callsubr
          hintmask 1110110101000000
          149 callgsubr
          -412 109 callsubr
          hintmask 1111010110000000
          108 callsubr
          hintmask 1111010100100000
          174 callgsubr
          hintmask 1111010110000000
          18 callsubr
        </CharString>
        <CharString name="dv_eight">
          -2 callsubr
        </CharString>
        <CharString name="dv_five">
          -7 callgsubr
        </CharString>
        <CharString name="dv_four">
          -29 callsubr
        </CharString>
        <CharString name="dv_g.nukta">
          -144 -65 138 59 27 381 20 hstemhm
          25 66 24 138 -21 145 hintmask 11111000
          184 73 -107 callsubr
          255 487 rmoveto
          -459 -20 120 hlineto
          hintmask 01110100
          -105 callsubr
          193 hlineto
          endchar
        </CharString>
        <CharString name="dv_g_ba">
          385 224 callsubr
          8 27 261 36 -36 140 -20 131 callgsubr
          42 -32 callgsubr
          hintmask 1010011111000000
          729 50 callgsubr
          -988 -20 120 hlineto
          91 41 -86 -104 hvcurveto
          hintmask 0010011111000000
          -97 -26 -94 -70 -29 -16 16 20 vhcurveto
          58 85 -45 85 vvcurveto
          33 -2 -24 28 -43 hhcurveto
          -51 -31 -40 -49 -85 63 -48 77 127 85 96 122 82 -44 83 -87 25 hvcurveto
          483 -301 hlineto
          hintmask 0010101111000000
          -143 135 rlineto
          -74 callgsubr
          hintmask 0111011111000000
          9 callgsubr
          hintmask 1010011111000000
          -71 callgsubr
        </CharString>
        <CharString name="dv_g_bh_ya">
          840 390 callsubr
          -27 217 callsubr
          67 34 callsubr
          83 -75 callgsubr
          hintmask 100101001111011010000000
          -20 246 callgsubr
          113 callgsubr
          20 -459 hlineto
          hintmask 110001001111011010000000
          1203 -350 rmoveto
          -48 -15 -49 -30 -59 -90 callgsubr
          hintmask 101010001111010110000000
          -103 callgsubr
          -672 -380 -50 callgsubr
          912 149 callsubr
          hvcurveto
          hintmask 100101010110110110000000
          247 callgsubr
          vhcurveto
          -169 6 hlineto
          159 -58 67 -90 -68 -48 -40 -66 -1 vhcurveto
          hintmask 100101100110111010000000
          19 -1 rlineto
          hintmask 100101010110111010000000
          64 callgsubr
          -7 vlineto
          hintmask 101010001111011010000000
          -26 callsubr
          hintmask 101001001111011010000000
          34 callgsubr
          hvcurveto
          85 115 callsubr
          hintmask 110001001111011010000000
          -92 callgsubr
        </CharString>
        <CharString name="dv_g_bha">
          453 21 -21 105 217 callsubr
          49 123 callgsubr
          hintmask 1010100111101100
          -20 246 callgsubr
          hlineto
          -105 callsubr
          163 20 -429 hlineto
          hintmask 1101000111101100
          513 -400 -50 callgsubr
          543 400 rmoveto
          -308 -20 68 hlineto
          hintmask 1010101011011100
          391 callgsubr
          vlineto
          159 -58 67 -90 -68 -48 -40 -66 -1 vhcurveto
          hintmask 1010110011011100
          19 -1 rlineto
          hintmask 1010101011011100
          64 callgsubr
          -7 vlineto
          hintmask 1101000111101100
          -26 callsubr
          hintmask 1100100111101100
          200 callgsubr
        </CharString>
        <CharString name="dv_g_da">
          300 24 22 86 27 250 13 -13 151 -20 131 callgsubr
          41 92 callgsubr
          hintmask 1110111110000000
          763 176 callgsubr
          -903 -20 120 hlineto
          -105 callsubr
          377 -118 hlineto
          307 callgsubr
          hintmask 1101011101000000
          35 -41 50 -29 40 247 callsubr
          -89 callsubr
          hintmask 1101011110000000
          -17 callgsubr
        </CharString>
        <CharString name="dv_g_dh_va">
          757 0 124 -85 48 -15 52 8 27 156 20 85 36 -36 140 -20 131 callgsubr
          34 56 callgsubr
          227 -32 callgsubr
          hintmask 0101110111101100
          1340 560 138 callgsubr
          hlineto
          hintmask 1001101011101100
          -347 vlineto
          -72 callgsubr
          hintmask 0101110111101100
          -92 callsubr
          -45 10 -36 18 -29 hvcurveto
          -30 -33 -41 -31 -68 192 callsubr
          hintmask 0101110111011100
          -41 callsubr
          -679 -20 120 vlineto
          -105 callsubr
          249 hlineto
          -42 callgsubr
          hintmask 0101110111101100
          255 callsubr
          110 73 48 45 46 vhcurveto
          hintmask 0011110111101100
          -41 33 50 -19 53 100 callsubr
          hintmask 1001110111101100
          -71 callgsubr
        </CharString>
        <CharString name="dv_g_dh_ya">
          833 360 callsubr
          0 27 156 20 205 131 callgsubr
          34 56 callgsubr
          223 -75 callgsubr
          hintmask 1110111110101000
          1176 -104 callsubr
          hintmask 1101111110011000
          -88 callgsubr
          -680 -20 79 -42 callsubr
          hintmask 1101111110101000
          -45 callgsubr
          -52 17 -42 30 -32 vhcurveto
          -35 -35 -44 -41 -78 192 callsubr
          hintmask 1101111101011000
          -41 callsubr
          -679 -20 120 vlineto
          -105 callsubr
          249 hlineto
          -42 callgsubr
          hintmask 1101111110011000
          255 callsubr
          126 77 62 49 43 vhcurveto
          hintmask 1110111110011000
          -35 42 59 -19 67 -74 callsubr
        </CharString>
        <CharString name="dv_g_dha">
          437 21 -21 39 48 45 27 156 20 205 131 callgsubr
          46 377 callsubr
          734 560 rmoveto
          -20 46 -371 vlineto
          -54 -9 -46 -28 -44 2 callgsubr
          hintmask 1111111011000000
          -41 callsubr
          -691 -20 120 vlineto
          -105 callsubr
          261 hlineto
          -42 callgsubr
          hintmask 1111111101000000
          104 callgsubr
        </CharString>
        <CharString name="dv_g_ga">
          485 21 -21 420 callsubr
          72 callgsubr
          37 116 callsubr
          62 140 vstem
          1068 560 rmoveto
          -1088 -20 120 hlineto
          -105 callsubr
          243 113 callgsubr
          53 callgsubr
        </CharString>
        <CharString name="dv_g_gha">
          444 21 -21 39 48 45 27 156 20 205 131 callgsubr
          53 377 callsubr
          787 169 rmoveto
          -54 -9 -46 -28 -44 2 callgsubr
          hintmask 1111111011000000
          385 callgsubr
          240 20 rmoveto
          -1047 -20 120 hlineto
          -105 callsubr
          267 hlineto
          54 callsubr
          hintmask 1111111101000000
          240 callgsubr
        </CharString>
        <CharString name="dv_g_ja">
          496 21 -21 39 23 70 27 271 20 90 131 callgsubr
          2 263 callgsubr
          hintmask 1111111011000000
          1079 560 rmoveto
          -1099 -20 120 hlineto
          -105 callsubr
          593 320 callgsubr
          hintmask 1111110111000000
          -44 -37 22 25 hvcurveto
          8 callgsubr
        </CharString>
        <CharString name="dv_g_la">
          544 31 33 68 27 267 20 94 131 callgsubr
          36 -8 callgsubr
          hintmask 1111111101000000
          1127 540 rmoveto
          20 -1147 -20 120 vlineto
          -105 callsubr
          hintmask 1111111010000000
          559 -107 hlineto
          17 callgsubr
          hintmask 1111111101000000
          -94 callsubr
          hvcurveto
          hintmask 1111111010000000
          31 callsubr
        </CharString>
        <CharString name="dv_g_ma">
          418 21 -21 105 55 -28 27 150 21 -18 19 209 131 callgsubr
          24 11 callgsubr
          hintmask 1010110011100000
          797 331 rmoveto
          -129 209 129 hlineto
          hintmask 1101010011100000
          10 callgsubr
          565 400 rmoveto
          -1057 -20 120 hlineto
          hintmask 1011011111100000
          -105 callsubr
          283 -210 hlineto
          hintmask 1101010011100000
          -72 callsubr
          hintmask 1100110011100000
          -65 callgsubr
        </CharString>
        <CharString name="dv_g_n_ya">
          487 390 callsubr
          0 27 381 131 callgsubr
          64 146 -44 161 -115 -48 callsubr
          hintmask 1101111001000000
          830 -104 callsubr
          hintmask 1011110011000000
          -88 callgsubr
          -1090 -20 120 hlineto
          -105 callsubr
          223 -42 callsubr
          hintmask 1101111001000000
          105 callsubr
          hintmask 1011110101000000
          -80 callsubr
          18 13 46 32 35 23 15 10 14 13 11 15 rrcurveto
          -167 -100 callgsubr
        </CharString>
        <CharString name="dv_g_na">
          101 21 -21 234 callsubr
          91 161 -111 145 62 140 hintmask 11110110
          12 callsubr
          -353 hlineto
          -123 -84 rlineto
          hintmask 11111010
          -80 callsubr
          20 14 54 38 35 23 rrcurveto
          -163 -100 callgsubr
        </CharString>
        <CharString name="dv_g_na.half">
          -179 234 callsubr
          91 161 -111 145 hintmask 11101000
          463 200 428 callsubr
          hintmask 11110000
          -80 callsubr
          30 21 109 75 0 vvcurveto
          -494 376 rmoveto
          -20 125 vlineto
          hintmask 11101000
          -105 callsubr
          233 20 hlineto
          endchar
        </CharString>
        <CharString name="dv_g_nna">
          656 21 -21 132 27 -22 20 383 131 callgsubr
          72 253 callsubr
          hintmask 1011111110000000
          732 5 callsubr
          505 20 rmoveto
          -1257 -20 120 hlineto
          91 41 -86 -104 hvcurveto
          hintmask 1101111110000000
          -97 -26 -94 -70 -29 -16 16 20 vhcurveto
          58 85 -45 85 vvcurveto
          33 -2 -24 28 -43 hhcurveto
          -51 -31 -40 -49 -85 63 -48 77 127 85 96 122 82 -44 83 -87 25 hvcurveto
          203 -198 hlineto
          hintmask 1011111110000000
          103 callsubr
        </CharString>
        <CharString name="dv_g_r_ya">
          487 390 callsubr
          0 27 381 131 callgsubr
          64 408 callsubr
          830 184 287 callsubr
          hintmask 1011110110000000
          -88 callgsubr
          -1090 -20 120 hlineto
          -105 callsubr
          223 -42 callsubr
          hintmask 1101111010000000
          14 callsubr
          302 206 rlineto
          -158 -100 callgsubr
        </CharString>
        <CharString name="dv_g_ra">
          101 14 -21 28 -21 234 callsubr
          141 145 62 140 hintmask 01111110
          12 callsubr
          -347 hlineto
          hintmask 10111110
          232 callsubr
          hintmask 01111110
          -167 -100 callgsubr
        </CharString>
        <CharString name="dv_g_ra.half">
          -157 420 callsubr
          72 callgsubr
          vstem
          439 540 rmoveto
          20 -459 -20 120 vlineto
          -105 callsubr
          247 -330 rmoveto
          -337 -231 11 -18 337 231 rlineto
          endchar
        </CharString>
        <CharString name="dv_g_ra.nukta">
          101 -152 138 28 -21 28 -21 234 callsubr
          141 145 -109 138 33 140 hintmask 1011110110000000
          342 -14 -107 callsubr
          342 574 rmoveto
          -704 -20 125 hlineto
          hintmask 0101111010000000
          -105 callsubr
          193 -347 hlineto
          232 callsubr
          hintmask 0011111010000000
          -167 -100 callgsubr
        </CharString>
        <CharString name="dv_g_ra.nukta.half">
          -176 -180 138 174 27 381 131 callgsubr
          -130 138 hintmask 01111000
          439 540 rmoveto
          20 -459 -20 120 vlineto
          -105 callsubr
          247 -330 rmoveto
          -337 -231 11 -18 337 231 rlineto
          hintmask 11110100
          -188 -234 -107 callsubr
          endchar
        </CharString>
        <CharString name="dv_g_sa">
          517 318 callsubr
          132 27 103 20 258 131 callgsubr
          201 136 callsubr
          hintmask 1011111110000000
          860 282 rmoveto
          -244 hlineto
          -85 callgsubr
          251 305 callsubr
          -1120 -20 120 hlineto
          -105 callsubr
          209 -99 callgsubr
          350 vlineto
          hintmask 0111111110000000
          -262 -100 callsubr
          vlineto
          endchar
        </CharString>
        <CharString name="dv_g_va">
          388 224 callsubr
          8 27 261 36 -36 140 -20 131 callgsubr
          45 -32 callgsubr
          hintmask 0011011111000000
          971 560 rmoveto
          -991 -20 120 hlineto
          -105 callsubr
          486 hlineto
          58 callsubr
        </CharString>
        <CharString name="dv_g_ya">
          459 390 callsubr
          0 27 381 131 callgsubr
          36 408 callsubr
          802 -104 callsubr
          hintmask 1011110110000000
          -88 callgsubr
          -1062 -20 120 hlineto
          -105 callsubr
          195 -42 callsubr
          hintmask 1101111010000000
          -7 -10 1 0 hvcurveto
          -1 -7 -1 -10 -15 vvcurveto
          -92 callgsubr
        </CharString>
        <CharString name="dv_ga">
          101 21 -21 420 callsubr
          30 116 callsubr
          62 140 vstem
          12 callsubr
          53 callgsubr
        </CharString>
        <CharString name="dv_ga.half">
          -144 420 callsubr
          72 callgsubr
          vstem
          439 560 rmoveto
          -459 -20 120 113 callgsubr
          hlineto
          endchar
        </CharString>
        <CharString name="dv_ga.nukta">
          101 -92 138 -25 -21 234 callsubr
          43 138 -40 145 62 140 hintmask 10111101
          208 46 -107 callsubr
          476 514 rmoveto
          -704 -20 125 hlineto
          hintmask 01111011
          -105 callsubr
          193 53 callgsubr
        </CharString>
</ttFont>
